<svg width="491" height="180" xmlns="http://www.w3.org/2000/svg" xmlns:xlink="http://www.w3.org/1999/xlink" xml:space="preserve" overflow="hidden"><defs><clipPath id="clip0"><rect x="369" y="241" width="491" height="180"/></clipPath></defs><g clip-path="url(#clip0)" transform="translate(-369 -241)"><path d="M648.631 13.6695C637.829 13.3211 628.789 21.7936 628.431 32.5958 628.082 43.3981 636.555 52.4381 647.357 52.7965 647.775 52.8064 648.203 52.8064 648.621 52.7965L648.621 13.6695Z" fill="#1D0F44" transform="matrix(1 0 0 1.00175 -134.093 241)"/><path d="M648.631 91.9234C659.433 91.575 667.906 82.535 667.557 71.7228 667.219 61.4084 658.946 53.125 648.631 52.7965L648.631 91.9234Z" fill="#1D0F44" transform="matrix(1 0 0 1.00175 -134.093 241)"/><path d="M648.631 91.9234C637.829 91.9234 629.078 100.665 629.068 111.467 629.068 122.269 637.809 131.021 648.611 131.03L648.631 131.03 648.631 91.9234Z" fill="#1D0F44" transform="matrix(1 0 0 1.00175 -134.093 241)"/><path d="M648.631 153.182C654.734 153.182 659.692 148.224 659.682 142.121 659.682 136.018 654.734 131.07 648.631 131.07L648.631 153.192Z" fill="#1D0F44" transform="matrix(1 0 0 1.00175 -134.093 241)"/><path d="M597.557 166.026C608.359 165.677 616.832 156.637 616.483 145.825 616.145 135.511 607.871 127.227 597.557 126.899L597.557 166.026Z" fill="#1D0F44" transform="matrix(1 0 0 1.00175 -134.093 241)"/><path d="M597.557 87.7718C586.755 87.4233 577.715 95.8959 577.356 106.698 577.008 117.5 585.481 126.54 596.283 126.899 596.701 126.909 597.129 126.909 597.547 126.899L597.547 87.7718Z" fill="#1D0F44" transform="matrix(1 0 0 1.00175 -134.093 241)"/><path d="M597.557 87.7718C608.359 87.7718 617.111 79.0205 617.111 68.2183 617.111 57.4161 608.359 48.6648 597.557 48.6648L597.557 87.7718Z" fill="#1D0F44" transform="matrix(1 0 0 1.00175 -134.093 241)"/><path d="M597.557 26.5526C591.454 26.5526 586.496 31.5106 586.506 37.6136 586.506 43.7166 591.454 48.6648 597.557 48.6648L597.557 26.5426Z" fill="#1D0F44" transform="matrix(1 0 0 1.00175 -134.093 241)"/><path d="M547.349 13.9184C536.547 14.2669 528.074 23.3069 528.423 34.1191 528.761 44.4335 537.035 52.7168 547.349 53.0454L547.349 13.9184Z" fill="#1D0F44" transform="matrix(1 0 0 1.00175 -134.093 241)"/><path d="M547.349 92.1624C558.151 92.5108 567.191 84.0383 567.55 73.2361 567.908 62.4339 559.426 53.3938 548.624 53.0354 548.205 53.0255 547.777 53.0255 547.359 53.0354L547.359 92.1624Z" fill="#1D0F44" transform="matrix(1 0 0 1.00175 -134.093 241)"/><path d="M547.349 92.1624C536.547 92.1624 527.796 100.914 527.796 111.716 527.796 122.518 536.547 131.269 547.349 131.269L547.349 92.1624Z" fill="#1D0F44" transform="matrix(1 0 0 1.00175 -134.093 241)"/><path d="M696.519 25.9751 725.392 25.9751 725.392 32.3768 703.499 32.3768 703.499 49.3019 722.106 49.3019 722.106 55.8928 703.499 55.8928 703.499 79.4884 696.519 79.4884 696.519 25.9751Z" fill="#1D0F44" transform="matrix(1 0 0 1.00175 -134.093 241)"/><path d="M753.796 40.8692 760.387 40.8692 760.387 79.4785 754.473 79.4785 754.105 74.1819C752.193 78.2639 747.942 80.723 743.452 80.3347 739.947 80.5438 736.552 79.1101 734.263 76.4618 731.973 73.4153 730.828 69.6619 731.037 65.8587L731.037 40.8692 737.628 40.8692 737.628 64.7735C737.448 67.2127 738.135 69.632 739.559 71.6232 740.903 73.2162 742.914 74.0824 744.995 73.9629 747.534 74.0525 749.943 72.8777 751.437 70.8267 753.199 68.3577 754.065 65.3609 753.896 62.3343L753.796 40.8692Z" fill="#1D0F44" transform="matrix(1 0 0 1.00175 -134.093 241)"/><path d="M789.19 40.0329C792.714 39.8438 796.129 41.2874 798.439 43.9556 800.768 46.9623 801.943 50.7157 801.744 54.5189L801.744 79.4884 795.074 79.4884 795.074 55.5842C795.213 53.1649 794.486 50.7854 793.023 48.8539 791.659 47.2709 789.648 46.4048 787.567 46.4944 784.998 46.4545 782.569 47.709 781.105 49.8197 779.323 52.4679 778.457 55.624 778.626 58.8099L778.626 79.4884 771.956 79.4884 771.956 40.8792 777.87 40.8792 778.238 46.1758C780.319 42.1038 784.64 39.6845 789.19 40.0429Z" fill="#1D0F44" transform="matrix(1 0 0 1.00175 -134.093 241)"/><path d="M840.562 23.5757 847.153 23.5757 847.153 79.4884 841.269 79.4884 840.881 73.8235C837.914 78.1742 832.876 80.6433 827.63 80.3247 822.661 80.5039 817.873 78.4231 814.617 74.6598 811.232 70.6077 809.46 65.4505 809.629 60.1739 809.48 54.937 811.252 49.8296 814.617 45.8074 817.893 42.0241 822.701 39.9135 827.709 40.0628 833.573 40.0628 837.864 42.1137 840.572 46.2156L840.572 23.5658ZM828.705 46.3152C825.33 46.2256 822.094 47.6592 819.904 50.2378 817.514 52.9857 816.27 56.5499 816.439 60.1838 816.28 63.8377 817.474 67.4218 819.784 70.2593 821.984 72.8379 825.24 74.2616 828.625 74.1321 831.841 74.152 834.917 72.7781 837.058 70.3787 839.497 67.7105 840.781 64.1861 840.652 60.5721L840.652 60.1838C840.821 56.5001 839.527 52.896 837.058 50.1482 834.947 47.7389 831.911 46.3351 828.705 46.3152Z" fill="#1D0F44" transform="matrix(1 0 0 1.00175 -134.093 241)"/><path d="M871.983 40.0329C875.707 39.8139 879.371 41.1181 882.119 43.647 884.697 46.4147 886.021 50.1283 885.772 53.9016L885.772 79.4884 879.799 79.4884 879.49 74.1919C878.385 76.1034 876.762 77.6565 874.811 78.682 872.64 79.807 870.221 80.3646 867.772 80.3247 864.755 80.4741 861.798 79.4088 859.568 77.3678 857.478 75.2771 856.372 72.3998 856.512 69.4528 856.512 63.3797 860.106 59.6562 867.304 58.2723L879.102 56.0322 879.102 54.1206C879.102 48.8141 876.732 46.1559 871.983 46.1559 869.913 46.0563 867.891 46.7234 866.279 48.0276 864.795 49.3219 863.989 51.2334 864.078 53.1947L857.577 53.1947C857.607 49.6305 859.09 46.2256 861.679 43.7764 864.477 41.2077 868.18 39.8637 871.983 40.023ZM879.102 63.2403 879.102 61.8066 868.539 64.0866C867.045 64.3852 865.641 65.0324 864.437 65.9782 863.511 66.8543 863.013 68.1088 863.103 69.3831 863.023 70.7471 863.581 72.0712 864.626 72.9573 865.89 73.8733 867.434 74.3113 868.997 74.2118 872.083 74.3512 875.03 72.9175 876.812 70.3986 878.325 68.3278 879.132 65.8288 879.112 63.2602Z" fill="#1D0F44" transform="matrix(1 0 0 1.00175 -134.093 241)"/><path d="M912.255 40.0329C916.248 39.9135 920.18 41.0982 923.436 43.418 926.552 45.7178 928.683 49.1028 929.429 52.896L922.819 52.896C922.122 50.8352 920.728 49.0829 918.876 47.928 916.905 46.7234 914.635 46.116 912.335 46.1658 908.99 46.1061 905.804 47.5696 903.673 50.1482 901.383 53.0056 900.189 56.5997 900.308 60.2635 900.199 63.8874 901.423 67.4318 903.753 70.2095 905.893 72.798 909.109 74.2616 912.474 74.1919 914.784 74.2317 917.044 73.5945 918.995 72.3699 920.807 71.2349 922.161 69.5026 922.809 67.4616L929.479 67.4616C928.633 71.2648 926.443 74.6299 923.326 76.9596 920.081 79.2495 916.178 80.4243 912.205 80.3247 907.108 80.4741 902.19 78.4132 898.725 74.6598 895.151 70.7471 893.259 65.5899 893.448 60.2933 893.269 54.9669 895.161 49.7699 898.725 45.8074 902.19 42.0241 907.118 39.9234 912.245 40.023Z" fill="#1D0F44" transform="matrix(1 0 0 1.00175 -134.093 241)"/><path d="M946.354 29.0117C946.374 30.1865 945.916 31.3115 945.08 32.1279 944.204 32.9742 943.039 33.4421 941.815 33.4222 940.61 33.452 939.445 32.9841 938.589 32.1279 937.743 31.3016 937.275 30.1666 937.294 28.9918 937.235 26.5526 939.166 24.5315 941.605 24.4817 941.675 24.4817 941.745 24.4817 941.815 24.4817 943.029 24.4618 944.204 24.9297 945.08 25.776 945.936 26.6322 946.394 27.807 946.354 29.0216ZM938.479 40.8692 945.07 40.8692 945.07 79.4785 938.479 79.4785 938.479 40.8692Z" fill="#1D0F44" transform="matrix(1 0 0 1.00175 -134.093 241)"/><path d="M973.455 40.0329C978.691 39.8637 983.759 41.9345 987.383 45.7178 991.116 49.5807 993.118 54.8076 992.899 60.1838 993.108 65.56 991.116 70.7969 987.383 74.6697 983.729 78.453 978.632 80.5139 973.365 80.3347 968.058 80.5239 962.911 78.463 959.188 74.6697 955.524 70.7571 953.563 65.5401 953.752 60.1838 953.563 54.8275 955.524 49.6205 959.188 45.7178 962.921 41.8848 968.108 39.8239 973.445 40.0329ZM973.455 46.1857C969.9 46.0463 966.465 47.5099 964.096 50.1681 961.736 52.9558 960.522 56.53 960.711 60.1838 960.582 63.8576 961.846 67.4318 964.235 70.2194 966.595 72.8876 970.03 74.3512 973.594 74.2018 977.079 74.3412 980.434 72.8677 982.704 70.2194 985.103 67.4417 986.357 63.8576 986.228 60.1838 986.377 56.5101 985.113 52.916 982.704 50.1482 980.414 47.49 977.039 46.0264 973.534 46.1658L973.455 46.1857ZM978.114 23.4363 986.855 23.4363 975.904 35.5428 969.622 35.5428 978.114 23.4363Z" fill="#1D0F44" transform="matrix(1 0 0 1.00175 -134.093 241)"/><path d="M697.545 99.6592 726.437 99.6592 726.437 106.18 704.524 106.18 704.524 123.106 723.132 123.106 723.132 129.696 704.524 129.696 704.524 153.192 697.545 153.192 697.545 99.6592Z" fill="#1D0F44" transform="matrix(1 0 0 1.00175 -134.093 241)"/><path d="M741.879 102.795C741.909 103.99 741.421 105.135 740.545 105.931 739.688 106.798 738.504 107.276 737.279 107.246 736.074 107.276 734.91 106.798 734.083 105.931 733.227 105.115 732.749 103.98 732.769 102.795 732.759 100.316 734.76 98.2953 737.239 98.2853 737.249 98.2853 737.269 98.2853 737.279 98.2853 738.504 98.2554 739.679 98.7333 740.545 99.5995 741.431 100.426 741.909 101.591 741.879 102.795ZM734.004 114.673 740.594 114.673 740.594 153.182 734.004 153.182 734.004 114.673Z" fill="#1D0F44" transform="matrix(1 0 0 1.00175 -134.093 241)"/><path d="M763.404 113.837C766.749 113.717 770.004 114.922 772.454 117.202 774.843 119.511 776.177 122.697 776.127 126.023L769.377 126.023C769.775 123.066 767.705 120.358 764.748 119.959 764.24 119.89 763.732 119.9 763.224 119.969 761.641 119.86 760.078 120.368 758.854 121.383 757.818 122.359 757.261 123.743 757.34 125.156 757.251 126.481 757.798 127.755 758.814 128.601 760.596 129.647 762.557 130.344 764.598 130.652 768.153 131.24 771.508 132.703 774.365 134.903 776.336 136.815 777.382 139.483 777.242 142.231 777.382 145.526 775.998 148.692 773.489 150.823 767.486 155.134 759.381 155.054 753.468 150.634 750.939 148.254 749.525 144.919 749.595 141.444L756.345 141.444C756.345 145.735 758.844 147.886 763.852 147.886 765.604 147.985 767.326 147.488 768.76 146.472 769.915 145.556 770.562 144.142 770.502 142.679 770.582 141.215 769.955 139.802 768.82 138.886 766.888 137.671 764.738 136.855 762.478 136.486 759.232 135.949 756.156 134.635 753.507 132.673 751.586 130.841 750.57 128.263 750.72 125.614 750.67 122.538 751.885 119.571 754.085 117.411 756.584 115.001 759.949 113.707 763.424 113.837Z" fill="#1D0F44" transform="matrix(1 0 0 1.00175 -134.093 241)"/><path d="M799.414 113.837C806.334 113.14 812.516 118.187 813.213 125.107 813.303 125.973 813.293 126.839 813.213 127.705L813.213 153.192 807.24 153.192 806.851 148.005C805.746 149.907 804.123 151.46 802.172 152.476 799.992 153.611 797.572 154.168 795.113 154.118 792.097 154.278 789.14 153.222 786.91 151.181 784.819 149.091 783.704 146.203 783.853 143.236 783.853 137.084 787.447 133.45 794.645 132.056L806.443 129.836 806.443 127.924C806.443 122.618 804.074 119.959 799.325 119.959 797.254 119.86 795.233 120.527 793.62 121.831 792.137 123.125 791.33 125.037 791.42 126.998L784.918 126.998C784.948 123.434 786.422 120.029 789.02 117.58 791.848 114.991 795.591 113.637 799.424 113.827ZM806.533 137.034 806.533 135.58 795.97 137.88C794.476 138.179 793.062 138.826 791.868 139.772 790.932 140.648 790.434 141.902 790.534 143.177 790.454 144.531 791.021 145.845 792.057 146.731 793.321 147.647 794.864 148.095 796.428 148.005 799.514 148.145 802.461 146.701 804.243 144.172 805.756 142.111 806.563 139.613 806.543 137.054Z" fill="#1D0F44" transform="matrix(1 0 0 1.00175 -134.093 241)"/><path d="M824.075 97.3594 830.666 97.3594 830.666 119.93C833.374 115.828 837.665 113.777 843.529 113.777 848.527 113.588 853.326 115.708 856.562 119.521 859.977 123.514 861.779 128.631 861.609 133.888 861.759 139.125 859.986 144.232 856.621 148.254 853.366 152.018 848.587 154.098 843.609 153.919 838.352 154.238 833.314 151.769 830.357 147.418L829.969 153.202 824.085 153.202 824.085 97.3793ZM842.534 120.109C839.308 120.109 836.241 121.513 834.121 123.942 831.672 126.69 830.407 130.294 830.596 133.977L830.596 134.346C830.437 137.95 831.702 141.474 834.121 144.152 838.551 148.911 846.008 149.18 850.767 144.75 851.006 144.531 851.235 144.292 851.464 144.053 853.784 141.225 854.969 137.631 854.809 133.977 854.969 130.334 853.734 126.769 851.365 124.002 849.154 121.433 845.909 119.999 842.524 120.099L842.544 120.099Z" fill="#1D0F44" transform="matrix(1 0 0 1.00175 -134.093 241)"/><path d="M878.216 102.795C878.236 103.98 877.748 105.125 876.882 105.931 876.016 106.798 874.841 107.266 873.616 107.246 872.431 107.276 871.286 106.828 870.44 105.991 869.594 105.165 869.126 104.03 869.146 102.855 869.116 100.396 871.077 98.3749 873.536 98.345 873.576 98.345 873.616 98.345 873.656 98.345 874.881 98.3251 876.055 98.7931 876.922 99.6592 877.768 100.486 878.236 101.621 878.216 102.795ZM870.44 114.673 877.001 114.673 877.001 153.182 870.44 153.182 870.44 114.673Z" fill="#1D0F44" transform="matrix(1 0 0 1.00175 -134.093 241)"/><path d="M905.316 113.837C910.583 113.657 915.67 115.708 919.334 119.501 923.067 123.384 925.049 128.611 924.83 133.987 925.019 139.324 923.028 144.501 919.334 148.354 915.69 152.177 910.603 154.278 905.316 154.118 899.999 154.308 894.862 152.257 891.139 148.453 887.485 144.581 885.533 139.413 885.703 134.087 885.504 128.721 887.465 123.504 891.139 119.601 894.842 115.768 899.99 113.667 905.316 113.837ZM905.316 119.989C901.762 119.84 898.337 121.303 895.977 123.972 893.538 126.729 892.274 130.334 892.453 134.007 892.323 137.681 893.588 141.255 895.977 144.043 898.337 146.691 901.762 148.145 905.316 148.005 908.801 148.125 912.166 146.661 914.446 144.023 916.825 141.235 918.08 137.651 917.95 133.987 918.119 130.314 916.865 126.72 914.446 123.952 912.166 121.303 908.81 119.84 905.316 119.969L905.316 119.989Z" fill="#1D0F44" transform="matrix(1 0 0 1.00175 -134.093 241)"/><path d="M402.579 122.458 408.473 108.072 414.347 122.458 402.579 122.458ZM407.647 97.5685 392.265 134.764 397.582 134.764 400.618 127.297 416.279 127.297 419.266 134.764 424.592 134.764 409.28 97.5685 407.647 97.5685ZM357.807 97.5685 356.175 97.5685 356.175 134.734 361.153 134.734 361.153 108.699 384.489 135.242 386.132 135.242 386.132 98.0663 381.154 98.0663 381.154 124.121 357.807 97.5685ZM228.38 97.5685 226.747 97.5685 226.747 134.744 231.725 134.744 231.725 108.699 255.072 135.242 256.705 135.242 256.705 98.0762 251.727 98.0762 251.727 124.121 228.38 97.5685ZM217.16 98.0464 194.261 98.0464 194.261 134.744 217.837 134.744 217.837 129.935 199.478 129.935 199.478 121.791 215.268 121.791 215.268 117.032 199.478 117.032 199.478 102.885 217.16 102.885 217.16 98.0464ZM137.93 122.458 143.824 108.072 149.708 122.458 137.93 122.458ZM142.998 97.5685 127.635 134.764 132.962 134.764 135.949 127.297 151.619 127.297 154.606 134.764 159.933 134.764 144.64 97.5685 142.998 97.5685ZM10.9516 135.62 55.0565 179.685C58.6207 179.705 62.175 179.367 65.6795 178.69L16.8156 129.806 10.9516 135.62ZM43.3881 178.431 5.82424 140.797 0 146.612 17.6121 164.273C24.6908 171.352 33.6512 176.27 43.4279 178.441M12.5346 27.578C9.34865 32.2772 8.82099 32.3868 8.82099 32.3868 10.6728 32.8846 12.6441 32.1478 13.7094 30.5549 16.9251 25.8855 17.4528 25.7362 17.4528 25.7362 15.591 25.2185 13.5998 25.9652 12.5346 27.578M28.5139 11.1706C28.5139 10.2447 27.7572 9.48804 26.8313 9.48804 25.9054 9.48804 25.1488 10.2447 25.1488 11.1706 25.1488 12.0965 25.9054 12.8532 26.8313 12.8532 26.8512 12.8532 26.8612 12.8532 26.8811 12.8532 27.807 12.8532 28.5637 12.0965 28.5637 11.1706L28.5637 11.1706M48.5552 72.6089 52.2987 72.6089 52.2987 69.4329 48.5552 69.4329 48.5552 65.7094 45.3893 65.7094 45.3893 69.4429 41.6558 69.4429 41.6558 72.6188 45.3893 72.6188 45.3893 76.3523 46.4745 76.3523 46.4745 81.2009 47.47 81.2009 47.47 76.3424 48.5552 76.3424 48.5552 72.6089ZM66.4063 91.7641 51.0044 107.116 47.47 103.592C41.4965 97.6183 39.8338 90.211 39.2365 80.9818 38.9577 76.7107 38.8283 72.0215 38.8283 66.7846L38.8283 57.6849 55.0167 57.6849 55.0167 66.7846C55.0167 76.3623 58.5212 83.9885 66.4063 91.7641M57.884 50.0785 56.0521 54.5089 17.2935 54.5089 15.4616 50.0785C20.0414 52.0199 25.3578 50.4071 28.0758 46.2355 31.1721 50.9845 37.524 52.3186 42.2631 49.2323 43.4578 48.4557 44.4833 47.4302 45.2598 46.2355 47.9878 50.4071 53.3042 52.0199 57.884 50.0785M53.6726 36.2497C51.8507 39.8438 51.4923 44.0054 52.677 47.8583 50.0984 47.4501 47.928 45.6979 46.9922 43.2587 48.0574 42.283 48.1271 40.6203 47.1515 39.5551 46.1758 38.4898 44.5131 38.4201 43.4478 39.3958 42.3825 40.3714 42.3129 42.0341 43.2885 43.0994 43.3383 43.1492 43.3881 43.2089 43.4478 43.2587 41.9943 47.022 37.7729 48.9037 33.9996 47.4501 32.0682 46.7034 30.5449 45.1802 29.8082 43.2587 30.8735 42.283 30.9431 40.6203 29.9675 39.5551 28.9918 38.4898 27.3291 38.4201 26.2638 39.3958 25.1986 40.3714 25.1289 42.0341 26.1045 43.0994 26.1543 43.1492 26.2041 43.2089 26.2638 43.2587 25.1886 46.0862 22.4706 47.9479 19.444 47.9479 19.1055 47.9479 18.777 47.9181 18.4484 47.8583 18.5081 45.2698 18.996 42.7111 19.9119 40.2818 22.7992 32.8547 32.2076 29.1511 36.5384 26.0647 37.7431 25.2185 40.1624 22.8091 40.1026 19.6332 40.0728 15.9992 37.1358 13.0622 33.5018 13.0324 30.0969 13.0324 25.1488 16.8654 22.7992 19.1851 22.2317 18.2493 21.3555 17.5424 20.3102 17.194 22.1919 13.789 23.3766 10.0356 23.8047 6.1727 25.2682 6.78997 26.8413 7.10856 28.4342 7.10856 31.0626 7.10856 33.6213 6.23244 35.7021 4.61957 38.221 7.17825 41.6757 8.62187 45.2698 8.60196L46.116 8.60196C46.4645 12.2757 48.2167 15.6707 51.0044 18.08 49.3716 19.444 47.9579 21.037 46.793 22.8191 44.8715 25.8258 42.2133 28.2949 39.0871 30.0073 38.0019 30.5947 36.8271 31.0128 35.6025 31.2319 35.8315 32.2673 35.941 33.3326 35.941 34.3979 35.951 36.2995 35.6125 38.1811 34.9454 39.9533L37.6933 41.0086C38.4798 38.898 38.8581 36.6479 38.8283 34.3979L38.8283 33.5914C41.5462 32.5261 45.6182 30.1068 49.3716 24.6311 52.448 20.0911 55.9127 18.2891 58.7004 17.6619 56.978 21.7239 57.0576 26.3236 58.9393 30.3159 56.6793 31.8093 54.8574 33.8702 53.6427 36.2895M18.4384 57.6849 35.6523 57.6849 35.6523 66.7846C35.6523 69.4926 35.6523 75.1576 36.0705 81.1909 36.4886 87.2242 37.295 92.7896 39.6745 97.897L31.2916 102.098 31.2916 69.4329 12.6341 69.4329 18.4384 57.6849ZM12.5644 72.6188 28.1256 72.6188 28.1256 103.701 18.996 108.291C19.225 103.263 19.3046 95.8361 18.2792 90.1413 17.0247 84.108 15.1032 78.234 12.5644 72.6188M51.0044 111.606 70.9164 91.6945 69.6022 90.4599C61.6075 82.9332 58.1827 75.8545 58.1827 66.7846L58.1827 57.0676 63.6485 43.8063C65.0025 43.3085 65.6994 41.8051 65.2016 40.4411 64.7038 39.0772 63.2005 38.3902 61.8365 38.888 60.811 39.2663 60.1241 40.242 60.1241 41.3471 60.1241 41.9744 60.3531 42.5717 60.7613 43.0396 59.9648 45.3096 58.103 47.0519 55.7833 47.6891 53.3242 41.1878 56.5997 33.9299 63.1009 31.4708 63.1109 31.4708 63.1308 31.4609 63.1407 31.4509 59.0787 26.2937 59.6761 18.8765 64.5147 14.4362 60.7413 13.6695 56.8087 14.3465 53.5034 16.3278 49.9889 13.6695 48.3362 9.20927 49.2721 4.89834 48.0077 5.41605 46.6537 5.69481 45.2897 5.69481 41.3571 5.69481 37.763 3.49454 35.9709-1.76853e-15 34.3282 2.5786 31.4907 4.14168 28.4342 4.15164 25.4076 4.15164 22.6 2.61842 20.9573 0.0796477 21.6244 7.46697 19.4042 16.1585 13.112 20.7781L14.8244 23.0481C15.8798 22.2615 16.8754 21.4053 17.8112 20.4794 18.1298 20.0712 18.6077 19.8422 19.1254 19.8422 19.9418 19.8622 20.5889 20.5192 20.5889 21.3356 20.579 21.6642 20.4794 21.9927 20.3102 22.2715 19.8721 23.1775 19.6332 24.1731 19.6332 25.1786 19.6332 26.1543 19.8422 27.1101 20.2604 27.9862L22.7992 26.7815C21.6044 24.203 23.6554 21.8036 26.911 19.3743 29.2506 17.642 31.7098 16.0092 33.5018 15.9992 35.503 15.9893 37.1358 17.6021 37.1457 19.6033 37.1457 19.6133 37.1457 19.6232 37.1457 19.6332 37.1457 21.8832 34.9156 23.6852 33.1633 24.7605 26.7417 28.8225 20.2206 31.7297 17.2338 38.9179 16.2382 41.4069 15.6309 44.0452 15.4517 46.7234 14.1275 45.8174 13.112 44.5231 12.5346 43.0297 13.5003 41.9544 13.4107 40.2918 12.3255 39.336 11.2502 38.3703 9.5876 38.4599 8.63182 39.5451 8.19376 40.0429 7.95482 40.6801 7.96477 41.3471 7.96477 42.4423 8.65173 43.4279 9.6772 43.8162L15.1729 57.1373 8.31323 71.0756C8.31323 71.0756 13.5003 81.4796 15.1629 90.7287 16.7658 99.6891 15.4716 113.627 15.4716 113.627L41.158 100.685C42.3029 102.556 43.6669 104.289 45.22 105.842 49.5409 110.173 51.0044 111.626 51.0044 111.626M56.4205 125.445 38.8283 107.813 33.014 113.627 70.5878 151.231C68.4174 141.464 63.4992 132.514 56.4205 125.445M70.8467 173.513C71.5336 170.018 71.8622 166.454 71.8423 162.89L27.807 118.805 21.9927 124.619 70.8467 173.513ZM113.568 82.0372C120.119 82.0372 124.37 80.2053 128.283 76.6609L128.283 63.9074 112.751 63.9074 112.751 68.6962 123.265 68.6962 123.265 74.2715C120.776 76.2627 117.6 77.1687 113.568 77.1687 105.603 77.1687 99.7787 71.3245 99.7787 63.2303 99.7787 55.1361 105.444 49.3418 112.96 49.3418 119.352 49.3418 121.831 52.1991 123.763 54.3198L127.436 50.9347C124.161 47.0917 119.87 44.5231 113.03 44.5231 102.825 44.4733 94.512 52.7069 94.4622 62.9118 94.4622 63.0312 94.4622 63.1507 94.4622 63.2702 94.4622 73.9728 102.676 82.0372 113.568 82.0372M114.852 135.242 130.234 98.0762 124.649 98.0762 114.046 124.45 103.433 98.0762 97.8572 98.0762 113.219 135.242 114.852 135.242ZM137.253 81.6389 160.819 81.6389 160.819 76.8103 142.42 76.8103 142.42 68.6962 158.2 68.6962 158.2 63.9074 142.42 63.9074 142.42 49.7798 160.102 49.7798 160.102 44.9313 137.253 44.9313 137.253 81.6389ZM171.342 98.0762 166.175 98.0762 166.175 134.764 187.541 134.764 187.541 129.955 171.342 129.955 171.342 98.0762ZM198.004 82.1467 199.637 82.1467 199.637 44.9313 194.659 44.9313 194.659 70.9761 171.322 44.4534 169.689 44.4534 169.689 81.6389 174.667 81.6389 174.667 55.5643 198.004 82.1467ZM209.892 81.6389 233.467 81.6389 233.467 76.8103 215.049 76.8103 215.049 68.6962 230.829 68.6962 230.829 63.9074 215.049 63.9074 215.049 49.7798 232.731 49.7798 232.731 44.9313 209.832 44.9313 209.892 81.6389ZM251.886 66.705 247.505 66.705 247.505 49.7798 251.886 49.7798C258.756 49.7798 262.081 52.5675 262.081 58.3021 262.081 64.0368 258.706 66.705 251.886 66.705M267.616 81.6389 259.711 70.0402C264.53 68.1685 267.606 63.4295 267.367 58.2723 267.367 49.9192 261.633 44.9412 252.035 44.9412L242.338 44.9412 242.338 81.6389 247.505 81.6389 247.505 71.4838 252.035 71.4838C252.852 71.4938 253.658 71.454 254.465 71.3544L261.344 81.6389 267.616 81.6389ZM282.749 97.668C272.176 97.668 264.201 105.722 264.201 116.415 264.201 127.108 272.166 135.182 282.859 135.182 289.181 135.411 295.165 132.345 298.679 127.088L294.557 124.181C291.999 128.093 287.598 130.413 282.919 130.314 275.133 130.314 269.488 124.469 269.488 116.425 269.488 108.381 275.143 102.487 282.66 102.487 287.04 102.357 291.182 104.508 293.611 108.162L297.663 105.245C294.298 100.346 288.683 97.4988 282.749 97.668M294.229 69.3433 282.441 69.3433 288.325 54.947 294.229 69.3433ZM299.207 81.629 304.533 81.629 289.141 44.4534 287.508 44.4534 272.146 81.6389 277.473 81.6389 280.46 74.162 296.12 74.162 299.207 81.629ZM311.492 98.0762 306.275 98.0762 306.275 134.774 311.492 134.774 311.492 98.0762ZM310.676 81.6389 332.041 81.6389 332.041 76.8103 315.843 76.8103 315.843 44.9512 310.676 44.9512 310.676 81.6389ZM338.821 81.6389 344.038 81.6389 344.038 44.9313 338.821 44.9313 338.821 81.6389ZM339.708 122.458 327.95 122.458 333.824 108.072 339.708 122.458ZM344.686 134.744 350.022 134.744 334.64 97.5685 333.017 97.5685 317.595 134.764 322.922 134.764 325.958 127.297 341.619 127.297 344.686 134.744ZM366.788 49.7798 377.56 49.7798 377.56 44.9313 350.808 44.9313 350.808 49.7798 361.621 49.7798 361.621 81.6389 366.788 81.6389 366.788 49.7798ZM397.333 69.3831 385.565 69.3831 391.439 54.9868 397.333 69.3831ZM407.627 81.6389 392.265 44.4534 390.632 44.4534 375.26 81.6389 380.587 81.6389 383.574 74.162 399.234 74.162 402.221 81.6389 407.627 81.6389ZM432.437 49.7798 432.437 44.9313 405.278 44.9313 405.278 49.7798 416.1 49.7798 416.1 81.6389 421.267 81.6389 421.267 49.7798 432.437 49.7798Z" fill="#00417C" transform="matrix(1 0 0 1.00175 -134.093 241)"/></g></svg>