<svg id="Grupo_34" data-name="Grupo 34" xmlns="http://www.w3.org/2000/svg" xmlns:xlink="http://www.w3.org/1999/xlink" width="234.967" height="309.37" viewBox="0 0 234.967 309.37">
  <defs>
    <clipPath id="clip-path">
      <rect id="Rectángulo_95" data-name="Rectángulo 95" width="234.967" height="309.369" fill="none"/>
    </clipPath>
  </defs>
  <g id="Grupo_33" data-name="Grupo 33" clip-path="url(#clip-path)">
    <path id="Trazado_53" data-name="Trazado 53" d="M60.681,77.258H33.288V92.333H56.654v9.714H33.288v24.623H22.7V67.544H60.681Zm21.366,49.411H71.616v-43.8h10.43Zm.248-49.411H71.371V67.544H82.294Zm54.916,71.014H1.126V0H137.209ZM126.361,10.737H11.881v126.6h114.48ZM72.277,21.451V45.972H66.391V36.28H59.919v9.692H54.034V21.451h5.885v9.464h6.472V21.451Zm43.09,0v15.9c0,5.338-4.13,8.813-9.2,8.813s-9.2-3.475-9.2-8.813v-15.9h5.885V37.192c0,2.323,1.289,3.577,3.319,3.577s3.349-1.263,3.349-3.577V21.451ZM86.13,39.109a6.9,6.9,0,0,0,.395-2.763c0-1.572.01-3.708-2.115-3.708s-2.081,2.147-2.081,3.708-.04,3.741,2.081,3.741a1.657,1.657,0,0,0,1.721-.978m5.987-11.445V44.671c0,4.466-3.222,7.707-8.13,7.707A8.729,8.729,0,0,1,76.868,49.5l3.6-3.639c1.1,1.059,1.693,1.579,3.328,1.579a2.53,2.53,0,0,0,2.733-2.83,8.741,8.741,0,0,1-3.352.651,6.319,6.319,0,0,1-4.515-1.7c-1.821-1.824-1.923-4.3-1.923-7.215s.1-5.361,1.924-7.182a6.392,6.392,0,0,1,4.547-1.7,5.764,5.764,0,0,1,3.448.95v-.755Z" transform="translate(0.423)" fill="#0098b9" fill-rule="evenodd"/>
    <path id="Trazado_54" data-name="Trazado 54" d="M6.2,228H6.153l-4.017-16.02H0L4.991,229.39H7.382L12.4,211.977H10.262Z" transform="translate(0 79.561)" fill="#fff" fill-rule="evenodd"/>
    <path id="Trazado_55" data-name="Trazado 55" d="M19.379,222.633h-4.6l2.3-9.263h.047ZM10.9,229.39H13.04l1.276-5.016h5.5l1.368,5.016h2.137l-4.9-17.413H15.873Z" transform="translate(4.093 79.561)" fill="#fff" fill-rule="evenodd"/>
    <path id="Trazado_56" data-name="Trazado 56" d="M32.679,229.39v-1.741h-7.1V211.977H23.647V229.39Z" transform="translate(8.875 79.561)" fill="#fff" fill-rule="evenodd"/>
    <path id="Trazado_57" data-name="Trazado 57" d="M42.837,229.39v-1.741H36.011v-6.431h6.362v-1.743H36.011v-5.757H42.79v-1.741H34.084V229.39Z" transform="translate(12.793 79.561)" fill="#fff" fill-rule="evenodd"/>
    <path id="Trazado_58" data-name="Trazado 58" d="M53.406,226.187c0,.651.023,1.323.047,1.95h-.047c-.232-.813-.395-1.37-.6-1.9l-4.946-14.257H44.724v17.414h1.925V215.507c0-.883-.022-1.788-.045-2.67h.045a14.018,14.018,0,0,0,.651,2.623l4.876,13.931h3.158V211.977H53.406Z" transform="translate(16.786 79.561)" fill="#fff" fill-rule="evenodd"/>
    <path id="Trazado_59" data-name="Trazado 59" d="M67.228,217.3c.094-3.111-1.626-5.573-4.922-5.573-4.944,0-5.526,4.922-5.526,8.846,0,4.156.186,9.334,5.549,9.334a4.4,4.4,0,0,0,3.785-1.952,6.666,6.666,0,0,0,1.022-3.691c.047-.348.047-.719.092-1.067H65.3c-.047.395-.07.789-.116,1.184-.232,1.9-.721,3.784-3.019,3.784-3.529,0-3.482-5.27-3.39-7.637,0-2.3.047-7.058,3.39-7.058,2.415,0,3.088,1.765,3.134,3.83Z" transform="translate(21.311 79.466)" fill="#fff" fill-rule="evenodd"/>
    <rect id="Rectángulo_86" data-name="Rectángulo 86" width="1.927" height="17.413" transform="translate(94.993 291.538)" fill="#fff"/>
    <path id="Trazado_60" data-name="Trazado 60" d="M82.916,222.633h-4.6l2.3-9.263h.047Zm-8.475,6.757h2.136l1.278-5.016h5.5l1.368,5.016h2.136l-4.9-17.413H79.41Z" transform="translate(27.94 79.561)" fill="#fff" fill-rule="evenodd"/>
    <path id="Trazado_61" data-name="Trazado 61" d="M1.181,204.3c0,3.111,2.067,4.621,5.225,4.621s5.224-1.51,5.224-4.621v-13.21H9.7v12.514c.023,1.37-.208,3.576-3.3,3.576s-3.32-2.206-3.3-3.576V191.092H1.181Z" transform="translate(0.443 71.722)" fill="#fff" fill-rule="evenodd"/>
    <path id="Trazado_62" data-name="Trazado 62" d="M22.26,205.3c0,.651.022,1.323.047,1.95H22.26c-.232-.813-.395-1.37-.6-1.9L16.71,191.091H13.576v17.414H15.5V194.621c0-.883-.022-1.788-.045-2.671H15.5a14.008,14.008,0,0,0,.651,2.624l4.876,13.931h3.158V191.091H22.26Z" transform="translate(5.095 71.722)" fill="#fff" fill-rule="evenodd"/>
    <rect id="Rectángulo_87" data-name="Rectángulo 87" width="1.927" height="17.413" transform="translate(36.3 262.815)" fill="#fff"/>
    <path id="Trazado_63" data-name="Trazado 63" d="M37.965,207.112h-.047L33.9,191.092H31.766L36.757,208.5h2.392l5.014-17.413H42.029Z" transform="translate(11.923 71.722)" fill="#fff" fill-rule="evenodd"/>
    <path id="Trazado_64" data-name="Trazado 64" d="M53.11,208.5v-1.741H46.285v-6.431h6.362V198.59H46.285v-5.757h6.779v-1.741H44.358V208.5Z" transform="translate(16.649 71.722)" fill="#fff" fill-rule="evenodd"/>
    <path id="Trazado_65" data-name="Trazado 65" d="M57.076,192.833h2.716c1.3,0,3.645.07,3.693,3.064.045,3.041-2.462,3.181-3.367,3.2H57.076Zm0,8.01h3.367c2.275,0,2.972,1.485,2.972,3.228a16.014,16.014,0,0,0,.6,4.434H66.27v-.395c-.465,0-.6-.767-.674-1.092-.186-1.3-.3-2.576-.371-3.877-.279-2.322-.836-3.041-3.088-3.25v-.047a3.725,3.725,0,0,0,3.343-3.785c.116-4.016-2.206-4.968-5.851-4.968H55.149v17.413h1.927Z" transform="translate(20.699 71.722)" fill="#fff" fill-rule="evenodd"/>
    <path id="Trazado_66" data-name="Trazado 66" d="M77.05,195.761c.186-3.273-1.765-4.922-4.944-4.922a4.571,4.571,0,0,0-4.854,4.76c0,1.718.418,3.111,2.066,3.946.93.488,2.462.975,3.414,1.348,1.765.673,2.833.7,2.833,3.342,0,2.044-1.37,3.042-3.32,3.042-2.9,0-3.39-1.624-3.3-4.2H67.02a9.728,9.728,0,0,0,.373,3.181,4.75,4.75,0,0,0,4.759,2.763c3.343,0,5.411-1.927,5.411-5.224,0-2.3-.6-3.46-3.9-4.69-.928-.348-1.833-.7-2.762-1.045a2.288,2.288,0,0,1-1.649-2.368c0-1.346.3-3.112,3.111-3.112a2.67,2.67,0,0,1,2.763,3.182Z" transform="translate(25.155 71.628)" fill="#fff" fill-rule="evenodd"/>
    <rect id="Rectángulo_88" data-name="Rectángulo 88" width="1.927" height="17.413" transform="translate(109.123 262.815)" fill="#fff"/>
    <path id="Trazado_67" data-name="Trazado 67" d="M84.783,192.833h4.5V208.5h1.927V192.833h4.5v-1.741H84.783Z" transform="translate(31.821 71.722)" fill="#fff" fill-rule="evenodd"/>
    <path id="Trazado_68" data-name="Trazado 68" d="M102.85,201.748h-4.6l2.3-9.263h.047Zm-8.475,6.757h2.136l1.278-5.016h5.5l1.368,5.016H106.8l-4.9-17.413H99.344Z" transform="translate(35.422 71.722)" fill="#fff" fill-rule="evenodd"/>
    <path id="Trazado_69" data-name="Trazado 69" d="M109.1,192.833h2.716c1.3,0,3.645.07,3.691,3.064.047,3.041-2.46,3.181-3.367,3.2H109.1Zm0,8.01h3.367c2.275,0,2.971,1.485,2.971,3.228a15.964,15.964,0,0,0,.6,4.434h2.253v-.395c-.465,0-.6-.767-.674-1.092-.186-1.3-.3-2.576-.371-3.877-.278-2.322-.836-3.041-3.088-3.25v-.047a3.726,3.726,0,0,0,3.343-3.785c.116-4.016-2.206-4.968-5.851-4.968H107.17v17.413H109.1Z" transform="translate(40.224 71.722)" fill="#fff" fill-rule="evenodd"/>
    <rect id="Rectángulo_89" data-name="Rectángulo 89" width="1.927" height="17.413" transform="translate(164.813 262.815)" fill="#fff"/>
    <path id="Trazado_70" data-name="Trazado 70" d="M135.49,199.568c-.022,5.038-.534,7.709-3.738,7.709s-3.713-2.671-3.737-7.709c-.025-3.877.719-6.988,3.691-6.988,3.064,0,3.807,3.111,3.784,6.988m-9.472-.047c.047,4.83.651,9.5,5.734,9.5s5.712-4.667,5.735-9.5c.023-3.993-.6-8.682-5.688-8.682-5.177,0-5.78,4.69-5.78,8.682" transform="translate(47.298 71.628)" fill="#fff" fill-rule="evenodd"/>
    <path id="Trazado_71" data-name="Trazado 71" d="M3.075,187.619v-8.4H9.738v8.4h1.927V170.206H9.738v7.267H3.075v-7.267H1.148v17.413Z" transform="translate(0.431 63.883)" fill="#fff" fill-rule="evenodd"/>
    <path id="Trazado_72" data-name="Trazado 72" d="M22.744,178.683c-.022,5.038-.534,7.709-3.737,7.709s-3.715-2.671-3.738-7.709c-.023-3.877.719-6.988,3.691-6.988,3.064,0,3.807,3.111,3.784,6.988m-9.472-.047c.047,4.83.651,9.5,5.735,9.5s5.712-4.666,5.734-9.5c.023-3.993-.6-8.682-5.688-8.682-5.177,0-5.781,4.69-5.781,8.682" transform="translate(4.981 63.789)" fill="#fff" fill-rule="evenodd"/>
    <path id="Trazado_73" data-name="Trazado 73" d="M35.629,174.875c.186-3.273-1.765-4.922-4.944-4.922a4.571,4.571,0,0,0-4.854,4.76c0,1.718.418,3.111,2.066,3.946.93.488,2.462.975,3.414,1.348,1.765.673,2.833.7,2.833,3.342,0,2.044-1.37,3.042-3.32,3.042-2.9,0-3.39-1.626-3.3-4.2H25.6a9.727,9.727,0,0,0,.371,3.181,4.752,4.752,0,0,0,4.759,2.763c3.343,0,5.411-1.927,5.411-5.224,0-2.3-.6-3.46-3.9-4.69-.928-.348-1.833-.7-2.762-1.045a2.288,2.288,0,0,1-1.649-2.368c0-1.346.3-3.111,3.111-3.111a2.669,2.669,0,0,1,2.763,3.181Z" transform="translate(9.608 63.788)" fill="#fff" fill-rule="evenodd"/>
    <path id="Trazado_74" data-name="Trazado 74" d="M39.646,171.949h2c2.346-.047,4.131.348,4.131,3.156.023,3-1.6,3.367-4.248,3.39h-1.88Zm0,15.671v-7.383h1.159a13.261,13.261,0,0,0,4.5-.51c1.881-.86,2.462-2.74,2.462-4.668a4.889,4.889,0,0,0-1.417-3.713c-1.02-.975-2.716-1.139-4.063-1.139H37.718v17.413Z" transform="translate(14.157 63.883)" fill="#fff" fill-rule="evenodd"/>
    <rect id="Rectángulo_90" data-name="Rectángulo 90" width="1.927" height="17.413" transform="translate(68.01 234.089)" fill="#fff"/>
    <path id="Trazado_75" data-name="Trazado 75" d="M54.89,171.948h4.5v15.671h1.927V171.948h4.5v-1.741H54.89Z" transform="translate(20.602 63.884)" fill="#fff" fill-rule="evenodd"/>
    <path id="Trazado_76" data-name="Trazado 76" d="M72.958,180.863h-4.6l2.3-9.263h.047Zm-8.475,6.756h2.136L67.9,182.6h5.5l1.37,5.014H76.9l-4.9-17.413H69.452Z" transform="translate(24.202 63.883)" fill="#fff" fill-rule="evenodd"/>
    <path id="Trazado_77" data-name="Trazado 77" d="M86.258,187.619v-1.741h-7.1V170.206H77.226v17.413Z" transform="translate(28.985 63.883)" fill="#fff" fill-rule="evenodd"/>
    <path id="Trazado_78" data-name="Trazado 78" d="M104.792,178.776h-5.8v1.741h3.877c.023,2.762-.3,6.036-3.877,5.874-3.436-.162-3.3-4.783-3.3-7.43,0-2.972.048-7.337,3.855-7.267,2.206.045,3.111,1.532,3.134,3.668h1.952c.045-3.25-1.858-5.409-5.18-5.409-5.036,0-5.757,4.876-5.757,8.938,0,4.086.395,9.241,5.571,9.241a3.875,3.875,0,0,0,3.994-3h.047v2.716h1.485Z" transform="translate(35.166 63.788)" fill="#fff" fill-rule="evenodd"/>
    <path id="Trazado_79" data-name="Trazado 79" d="M115.247,187.619v-1.741h-6.826v-6.431h6.362v-1.741h-6.362v-5.757H115.2v-1.743h-8.706v17.413Z" transform="translate(39.971 63.883)" fill="#fff" fill-rule="evenodd"/>
    <path id="Trazado_80" data-name="Trazado 80" d="M125.818,184.416c0,.649.023,1.323.045,1.95h-.045c-.232-.813-.4-1.37-.605-1.9l-4.944-14.255h-3.134v17.413h1.927V173.735c0-.882-.022-1.787-.045-2.67h.045a14.119,14.119,0,0,0,.649,2.624l4.877,13.929h3.158V170.206h-1.927Z" transform="translate(43.964 63.883)" fill="#fff" fill-rule="evenodd"/>
    <path id="Trazado_81" data-name="Trazado 81" d="M138.3,187.619v-1.741h-6.826v-6.431h6.361v-1.741h-6.361v-5.757h6.779v-1.743h-8.707v17.413Z" transform="translate(48.622 63.883)" fill="#fff" fill-rule="evenodd"/>
    <path id="Trazado_82" data-name="Trazado 82" d="M142.264,171.947h2.718c1.3,0,3.643.07,3.69,3.066.047,3.041-2.46,3.18-3.364,3.2h-3.044Zm0,8.01h3.367c2.275,0,2.971,1.485,2.971,3.228a15.9,15.9,0,0,0,.605,4.434h2.251v-.395c-.465,0-.6-.766-.673-1.091-.187-1.3-.3-2.577-.373-3.877-.276-2.322-.836-3.042-3.088-3.251v-.047a3.725,3.725,0,0,0,3.343-3.784c.117-4.017-2.206-4.969-5.851-4.969h-4.481v17.413h1.927Z" transform="translate(52.673 63.883)" fill="#fff" fill-rule="evenodd"/>
    <path id="Trazado_83" data-name="Trazado 83" d="M160.007,180.863h-4.6l2.3-9.263h.047Zm-8.473,6.756h2.136l1.276-5.014h5.5l1.368,5.014h2.136l-4.9-17.413H156.5Z" transform="translate(56.875 63.883)" fill="#fff" fill-rule="evenodd"/>
    <path id="Trazado_84" data-name="Trazado 84" d="M173.308,187.619v-1.741h-7.1V170.206h-1.925v17.413Z" transform="translate(61.658 63.883)" fill="#fff" fill-rule="evenodd"/>
    <rect id="Rectángulo_91" data-name="Rectángulo 91" width="1.927" height="17.413" transform="translate(2.019 205.366)" fill="#fff"/>
    <path id="Trazado_85" data-name="Trazado 85" d="M16.639,163.53c0,.651.023,1.323.045,1.95h-.045c-.232-.813-.395-1.37-.6-1.9l-4.946-14.255H7.955v17.413H9.882V152.85c0-.882-.022-1.788-.047-2.67h.047a14.019,14.019,0,0,0,.651,2.623l4.876,13.931h3.158V149.321H16.639Z" transform="translate(2.986 56.045)" fill="#fff" fill-rule="evenodd"/>
    <path id="Trazado_86" data-name="Trazado 86" d="M25.5,165.341h-.047l-4.016-16.02H19.3l4.991,17.413h2.392L31.7,149.321H29.565Z" transform="translate(7.245 56.045)" fill="#fff" fill-rule="evenodd"/>
    <path id="Trazado_87" data-name="Trazado 87" d="M40.648,166.734v-1.741H33.822v-6.431h6.361V156.82H33.822v-5.757H40.6v-1.743H31.9v17.413Z" transform="translate(11.971 56.045)" fill="#fff" fill-rule="evenodd"/>
    <path id="Trazado_88" data-name="Trazado 88" d="M52.125,153.99c.186-3.273-1.765-4.922-4.946-4.922a4.57,4.57,0,0,0-4.852,4.759c0,1.719.418,3.112,2.066,3.947.93.488,2.462.975,3.414,1.348,1.765.673,2.833.7,2.833,3.342,0,2.044-1.371,3.041-3.32,3.041-2.9,0-3.39-1.624-3.3-4.2H42.1a9.7,9.7,0,0,0,.373,3.181,4.75,4.75,0,0,0,4.759,2.763c3.343,0,5.409-1.928,5.409-5.223,0-2.3-.6-3.46-3.9-4.69-.928-.348-1.835-.7-2.763-1.045a2.288,2.288,0,0,1-1.648-2.368c0-1.346.3-3.111,3.111-3.111A2.669,2.669,0,0,1,50.2,153.99Z" transform="translate(15.8 55.95)" fill="#fff" fill-rule="evenodd"/>
    <path id="Trazado_89" data-name="Trazado 89" d="M53.016,151.062h4.5v15.671h1.927V151.062h4.5v-1.741H53.016Z" transform="translate(19.899 56.045)" fill="#fff" fill-rule="evenodd"/>
    <rect id="Rectángulo_92" data-name="Rectángulo 92" width="1.927" height="17.413" transform="translate(89.405 205.366)" fill="#fff"/>
    <path id="Trazado_90" data-name="Trazado 90" d="M82.2,157.891H76.4v1.741h3.877c.022,2.762-.3,6.036-3.877,5.873-3.437-.161-3.3-4.782-3.3-7.43,0-2.971.047-7.336,3.855-7.266,2.2.045,3.111,1.532,3.134,3.668h1.949c.048-3.25-1.857-5.409-5.177-5.409-5.038,0-5.757,4.876-5.757,8.938,0,4.086.395,9.241,5.571,9.241a3.877,3.877,0,0,0,3.994-3h.047v2.716H82.2Z" transform="translate(26.688 55.95)" fill="#fff" fill-rule="evenodd"/>
    <path id="Trazado_91" data-name="Trazado 91" d="M91.316,159.978h-4.6l2.3-9.264h.045Zm-8.475,6.756h2.136l1.278-5.014h5.5l1.37,5.014h2.136l-4.9-17.413H87.81Z" transform="translate(31.093 56.045)" fill="#fff" fill-rule="evenodd"/>
    <path id="Trazado_92" data-name="Trazado 92" d="M105.526,154.641c.092-3.111-1.626-5.573-4.922-5.573-4.944,0-5.526,4.922-5.526,8.846,0,4.156.186,9.334,5.549,9.334a4.4,4.4,0,0,0,3.785-1.952,6.668,6.668,0,0,0,1.02-3.691c.047-.348.047-.719.094-1.067H103.6c-.047.393-.07.788-.117,1.183-.231,1.9-.719,3.785-3.017,3.785-3.529,0-3.482-5.27-3.39-7.639,0-2.3.047-7.058,3.39-7.058,2.415,0,3.088,1.765,3.134,3.832Z" transform="translate(35.686 55.95)" fill="#fff" fill-rule="evenodd"/>
    <rect id="Rectángulo_93" data-name="Rectángulo 93" width="1.927" height="17.413" transform="translate(147.664 205.366)" fill="#fff"/>
    <path id="Trazado_93" data-name="Trazado 93" d="M117.729,149.066h1.556l3.041-3.273h-2.531Zm5.294,9.96c-.023,5.038-.535,7.707-3.738,7.707s-3.715-2.669-3.738-7.707c-.023-3.877.719-6.989,3.691-6.989,3.064,0,3.807,3.112,3.785,6.989m-9.473-.047c.047,4.829.651,9.5,5.735,9.5s5.712-4.668,5.734-9.5c.023-3.993-.6-8.682-5.687-8.682-5.178,0-5.782,4.69-5.782,8.682" transform="translate(42.618 54.72)" fill="#fff" fill-rule="evenodd"/>
    <path id="Trazado_94" data-name="Trazado 94" d="M135,163.53c0,.651.023,1.323.047,1.95H135c-.232-.813-.395-1.37-.6-1.9l-4.946-14.255h-3.133v17.413h1.925V152.85c0-.882-.022-1.788-.045-2.67h.045a14.019,14.019,0,0,0,.651,2.623l4.876,13.931h3.158V149.321H135Z" transform="translate(47.41 56.045)" fill="#fff" fill-rule="evenodd"/>
    <path id="Trazado_95" data-name="Trazado 95" d="M4.3,145.848v-7.894h5.6V135.4H4.3v-4.411h5.968v-2.554H1.046v17.413Z" transform="translate(0.393 48.206)" fill="#fff" fill-rule="evenodd"/>
    <path id="Trazado_96" data-name="Trazado 96" d="M19.352,140.3c0,1.671-.117,3.343-2.229,3.343-2.2,0-2.322-1.672-2.322-3.343V128.436h-3.25v12.143c0,3.854,1.253,5.687,5.548,5.687,4.248,0,5.5-1.833,5.5-5.687V128.436h-3.25Z" transform="translate(4.335 48.206)" fill="#fff" fill-rule="evenodd"/>
    <path id="Trazado_97" data-name="Trazado 97" d="M31.79,131.867c0,1.56.07,3.228.164,4.9s.209,3.361.323,4.937h-.045a58.143,58.143,0,0,0-2.322-6.907l-2.532-6.358H24.013v17.413h3.25v-3.268c0-1.39-.069-3.129-.162-4.867-.092-1.76-.232-3.522-.348-4.959H26.8a58.09,58.09,0,0,0,2.322,6.907l2.531,6.188h3.39V128.436H31.79Z" transform="translate(9.013 48.206)" fill="#fff" fill-rule="evenodd"/>
    <path id="Trazado_98" data-name="Trazado 98" d="M39.794,143.294V130.989H41.93c1.95,0,2.367,1.626,2.367,5.735,0,5.038-.184,6.57-3.086,6.57Zm2.763,2.554a4.788,4.788,0,0,0,2.415-.465c2.668-1.554,2.668-5.525,2.668-8.962,0-2.879-.208-4.805-.95-6.013a4.032,4.032,0,0,0-3.368-1.974H36.543v17.413Z" transform="translate(13.716 48.205)" fill="#fff" fill-rule="evenodd"/>
    <path id="Trazado_99" data-name="Trazado 99" d="M53.769,133.938c.162-.813.232-1.6.326-2.415.022-.395.069-.789.116-1.161h.047c.047.371.092.766.116,1.161.094.814.162,1.6.325,2.415l.883,4.946H52.794Zm-2.345,11.91.86-4.411h3.807l.86,4.411h3.482l-3.947-17.413H52.1l-4.156,17.413Z" transform="translate(17.994 48.205)" fill="#fff" fill-rule="evenodd"/>
    <path id="Trazado_100" data-name="Trazado 100" d="M67.583,139.763c-.07,1.114.139,3.994-1.649,3.994-2.228,0-2.345-2.345-2.345-3.785v-4.829c0-1.346-.208-4.387,2.345-4.387,1.6,0,1.488,2.089,1.626,3.2h3.206a8.533,8.533,0,0,0-.072-1.323c-.232-2.972-1.857-4.457-4.76-4.5-5.2,0-5.548,3.3-5.687,7.731v2.484c0,4.645.348,8.033,5.687,8.033,3.623,0,4.69-2.437,4.854-5.618.022-.325.045-.673.069-1Z" transform="translate(22.612 48.092)" fill="#fff" fill-rule="evenodd"/>
    <rect id="Rectángulo_94" data-name="Rectángulo 94" width="3.25" height="17.413" transform="translate(99.04 176.642)" fill="#fff"/>
    <path id="Trazado_101" data-name="Trazado 101" d="M82.455,128.264H84.8l3.437-3.39h-3.6Zm-.395,8.1c0-1.346-.209-4.387,2.345-4.387,2.415,0,2.345,3.088,2.345,4.481v4.457c0,1.672-.023,4.064-2.345,4.064-2.228,0-2.345-2.345-2.345-3.786Zm-3.343,3.2c0,4.643.349,8.033,5.688,8.033s5.688-3.39,5.688-8.033v-2.484c-.139-4.435-.488-7.732-5.688-7.732s-5.548,3.3-5.688,7.732Z" transform="translate(29.545 46.869)" fill="#fff" fill-rule="evenodd"/>
    <path id="Trazado_102" data-name="Trazado 102" d="M99.077,131.867c0,1.56.07,3.228.162,4.9s.209,3.361.325,4.937h-.047a58.414,58.414,0,0,0-2.32-6.907l-2.532-6.358H91.3v17.413h3.251v-3.268c0-1.39-.069-3.129-.162-4.867-.092-1.76-.232-3.522-.349-4.959h.048a58.351,58.351,0,0,0,2.32,6.907l2.532,6.188h3.389V128.436h-3.25Z" transform="translate(34.267 48.206)" fill="#fff" fill-rule="evenodd"/>
  </g>
</svg>
