<svg width="1513" height="674" xmlns="http://www.w3.org/2000/svg" xmlns:xlink="http://www.w3.org/1999/xlink" xml:space="preserve" overflow="hidden"><defs><clipPath id="clip0"><rect x="787" y="1052" width="1513" height="674"/></clipPath><clipPath id="clip1"><rect x="1388" y="1051" width="912" height="675"/></clipPath><clipPath id="clip2"><rect x="1388" y="1051" width="913" height="675"/></clipPath><clipPath id="clip3"><rect x="786" y="1051" width="551" height="586"/></clipPath><clipPath id="clip4"><rect x="786" y="1051" width="551" height="586"/></clipPath><clipPath id="clip5"><rect x="786" y="1051" width="892" height="1171"/></clipPath><clipPath id="clip6"><rect x="787" y="1051" width="890" height="1171"/></clipPath></defs><g clip-path="url(#clip0)" transform="translate(-787 -1052)"><g clip-path="url(#clip1)"><g clip-path="url(#clip2)"><g><path d="M225.397 292.349 121.758 292.349 121.758 349.387 210.177 349.387 210.177 386.146 121.758 386.146 121.758 479.32 81.6647 479.32 81.6647 255.583 225.397 255.583ZM306.243 479.334 266.708 479.334 266.708 313.592 306.177 313.592ZM307.177 292.349 265.867 292.349 265.867 255.59 307.177 255.59ZM514.948 561.064 0 561.064 0 0 514.948 0ZM473.899 40.6294 40.7019 40.6294 40.7019 519.645 473.899 519.645ZM269.244 81.1719 269.244 173.94 246.973 173.94 246.973 137.267 222.498 137.267 222.498 173.94 200.212 173.94 200.212 81.1719 222.498 81.1719 222.498 116.982 246.987 116.982 246.987 81.1719ZM432.313 81.1719 432.313 141.326C431.435 160.559 415.132 175.438 395.899 174.561 377.896 173.74 363.486 159.33 362.664 141.326L362.664 81.1719 384.936 81.1719 384.936 140.732C384.434 147.699 389.676 153.753 396.643 154.253 403.609 154.755 409.663 149.513 410.164 142.547 410.208 141.943 410.208 141.336 410.164 140.732L410.164 81.1719ZM321.665 147.986C322.87 144.638 323.378 141.08 323.158 137.528 323.158 131.578 323.194 123.497 315.186 123.497 307.177 123.497 307.293 131.629 307.293 137.536 307.293 143.442 307.141 151.69 315.164 151.69 317.919 152.036 320.572 150.529 321.687 147.986M344.343 104.675 344.343 169.033C344.696 184.828 332.179 197.919 316.384 198.272 315.448 198.293 314.511 198.268 313.577 198.197 303.4 198.928 293.457 194.915 286.638 187.326L300.242 173.556C303.228 177.465 307.92 179.69 312.838 179.527 318.105 179.992 322.751 176.098 323.215 170.831 323.274 170.16 323.263 169.485 323.18 168.816 319.155 170.46 314.845 171.295 310.497 171.273 304.178 171.476 298.037 169.17 293.415 164.859 286.522 157.959 286.167 148.588 286.167 137.557 286.167 126.527 286.551 117.264 293.415 110.379 298.083 106.063 304.265 103.758 310.62 103.965 315.242 103.759 319.811 105.028 323.666 107.589L323.666 104.733Z" fill="#181717" fill-rule="evenodd" transform="matrix(1.00051 0 0 1 791.782 1052.22)"/><path d="M884.534 904.653 884.36 904.653 869.14 844.035 861.059 844.035 879.946 909.929 888.999 909.929 907.972 844.035 899.891 844.035Z" fill="#181717" fill-rule="evenodd" transform="matrix(1.00051 0 0 1 548.904 814.271)"/><path d="M972.178 884.36 954.784 884.36 963.481 849.311 963.655 849.311ZM940.108 909.929 948.189 909.929 953.016 890.948 973.845 890.948 979.02 909.929 987.108 909.929 968.569 844.035 958.908 844.035Z" fill="#181717" fill-rule="evenodd" transform="matrix(1.00051 0 0 1 526.613 814.271)"/><path d="M1066.64 909.929 1066.64 903.341 1039.75 903.341 1039.75 844.035 1032.46 844.035 1032.46 909.929Z" fill="#181717" fill-rule="evenodd" transform="matrix(1.00051 0 0 1 500.56 814.271)"/><path d="M1141.23 909.929 1141.23 903.341 1115.39 903.341 1115.39 879.004 1139.46 879.004 1139.46 872.409 1115.39 872.409 1115.39 850.623 1141.04 850.623 1141.04 844.035 1108.14 844.035 1108.14 909.929Z" fill="#181717" fill-rule="evenodd" transform="matrix(1.00051 0 0 1 479.227 814.271)"/><path d="M1218.07 897.804C1218.07 900.268 1218.16 902.812 1218.24 905.182L1218.07 905.182C1217.19 902.109 1216.58 900 1215.79 897.978L1197.07 844.028 1185.22 844.028 1185.22 909.922 1192.5 909.922 1192.5 857.378C1192.5 854.037 1192.41 850.609 1192.33 847.275L1192.5 847.275C1193 850.652 1193.83 853.979 1194.97 857.197L1213.42 909.907 1225.37 909.907 1225.37 844.013 1218.08 844.013Z" fill="#181717" fill-rule="evenodd" transform="matrix(1.00051 0 0 1 457.473 814.271)"/><path d="M1312.13 863.284C1313.61 853.218 1306.64 843.861 1296.57 842.383 1295.55 842.238 1294.53 842.173 1293.5 842.194 1274.8 842.194 1272.59 860.82 1272.59 875.67 1272.59 891.397 1273.32 910.995 1293.61 910.995 1299.34 911.154 1304.74 908.371 1307.93 903.609 1310.56 899.435 1311.9 894.579 1311.8 889.644 1311.98 888.324 1311.98 886.918 1312.15 885.607L1304.84 885.607C1304.66 887.1 1304.57 888.593 1304.4 890.086 1303.53 897.29 1301.68 904.399 1292.98 904.399 1279.62 904.399 1279.8 884.454 1280.15 875.496 1280.15 866.799 1280.33 848.797 1292.98 848.797 1302.12 848.797 1304.66 855.472 1304.84 863.292Z" fill="#181717" fill-rule="evenodd" transform="matrix(1.00051 0 0 1 432.834 814.792)"/><path d="M0 0 7.29822 0 7.29822 65.8941-2.21176e-07 65.8941Z" fill="#181717" transform="matrix(1.00051 0 0 1 1770.09 1658.31)"/><path d="M1432.66 884.36 1415.27 884.36 1423.96 849.311 1424.14 849.311ZM1400.59 909.929 1408.67 909.929 1413.51 890.948 1434.33 890.948 1439.5 909.929 1447.58 909.929 1429.05 844.035 1419.39 844.035Z" fill="#181717" fill-rule="evenodd" transform="matrix(1.00051 0 0 1 396.73 814.271)"/><path d="M869.64 742.657C869.64 754.427 877.461 760.145 889.412 760.145 901.363 760.145 909.175 754.434 909.175 742.657L909.175 692.65 901.877 692.65 901.877 740.005C901.964 745.187 901.095 753.529 889.404 753.529 877.714 753.529 876.837 745.187 876.931 740.005L876.931 692.671 869.633 692.671Z" fill="#181717" fill-rule="evenodd" transform="matrix(1.00051 0 0 1 546.489 856.944)"/><path d="M992.333 746.433C992.333 748.897 992.413 751.441 992.507 753.811L992.333 753.811C991.456 750.738 990.84 748.629 990.05 746.6L971.337 692.657 959.48 692.657 959.48 758.551 966.771 758.551 966.771 706.021C966.771 702.68 966.684 699.252 966.597 695.911L966.771 695.911C967.271 699.293 968.098 702.618 969.235 705.84L987.688 758.551 999.639 758.551 999.639 692.664 992.348 692.664Z" fill="#181717" fill-rule="evenodd" transform="matrix(1.00051 0 0 1 521.153 856.944)"/><path d="M0 0 7.29097 0 7.29097 65.8941 3.04117e-07 65.8941Z" fill="#181717" transform="matrix(1.00051 0 0 1 1547.86 1549.62)"/><path d="M1114.76 753.289 1114.59 753.289 1099.37 692.671 1091.29 692.671 1110.18 758.565 1119.23 758.565 1138.2 692.671 1130.13 692.671Z" fill="#181717" fill-rule="evenodd" transform="matrix(1.00051 0 0 1 483.962 856.944)"/><path d="M1215.69 758.565 1215.69 751.978 1189.86 751.978 1189.86 727.648 1213.95 727.648 1213.95 721.052 1189.88 721.052 1189.88 699.259 1215.53 699.259 1215.53 692.671 1182.59 692.671 1182.59 758.565Z" fill="#181717" fill-rule="evenodd" transform="matrix(1.00051 0 0 1 458.227 856.944)"/><path d="M1268.06 699.259 1278.34 699.259C1283.26 699.259 1292.11 699.527 1292.31 710.855 1292.82 717.074 1288.2 722.53 1281.98 723.04 1281.17 723.106 1280.37 723.085 1279.57 722.98L1268.06 722.98ZM1268.06 729.568 1280.8 729.568C1289.41 729.568 1292.05 735.192 1292.05 741.78 1292.02 747.455 1292.79 753.101 1294.34 758.558L1302.86 758.558 1302.86 757.065C1301.1 757.065 1300.58 754.166 1300.31 752.934 1299.58 748.013 1299.17 743.186 1298.9 738.265 1297.84 729.481 1295.73 726.756 1287.22 725.945L1287.22 725.771C1294.52 725.024 1300.03 718.791 1299.87 711.45 1300.31 696.23 1291.52 692.65 1277.73 692.65L1260.77 692.65 1260.77 758.544 1268.06 758.544Z" fill="#181717" fill-rule="evenodd" transform="matrix(1.00051 0 0 1 436.162 856.944)"/><path d="M1384.76 709.456C1385.49 697.071 1378.09 690.83 1366.05 690.83 1356.52 690.233 1348.31 697.476 1347.71 707.008 1347.67 707.618 1347.66 708.23 1347.69 708.84 1346.91 714.967 1350.03 720.931 1355.51 723.778 1359.03 725.618 1364.83 727.459 1368.43 728.851 1375.1 731.395 1379.15 731.482 1379.15 741.498 1379.45 747.6 1374.75 752.789 1368.65 753.094 1367.96 753.13 1367.27 753.101 1366.59 753.007 1355.6 753.007 1353.76 746.861 1354.11 737.106L1346.82 737.106C1346.62 741.172 1347.1 745.237 1348.23 749.144 1351.4 756.109 1358.62 760.305 1366.24 759.602 1376.41 760.703 1385.55 753.355 1386.65 743.186 1386.78 742.07 1386.79 740.954 1386.71 739.838 1386.71 731.141 1384.42 726.742 1371.95 722.089 1368.43 720.77 1365.01 719.458 1361.5 718.132 1357.56 717 1354.95 713.256 1355.26 709.167 1355.26 704.093 1356.4 697.397 1367.03 697.397 1372.6 697.096 1377.36 701.368 1377.66 706.94 1377.7 707.776 1377.65 708.614 1377.49 709.435Z" fill="#181717" fill-rule="evenodd" transform="matrix(1.00051 0 0 1 411.9 857.466)"/><path d="M0 0 7.29097 0 7.29097 65.8941 3.04117e-07 65.8941Z" fill="#181717" transform="matrix(1.00051 0 0 1 1823.53 1549.62)"/><path d="M1475.54 699.259 1492.59 699.259 1492.59 758.565 1499.88 758.565 1499.88 699.259 1516.9 699.259 1516.9 692.671 1475.52 692.671Z" fill="#181717" fill-rule="evenodd" transform="matrix(1.00051 0 0 1 375.586 856.944)"/><path d="M1577.13 732.996 1559.74 732.996 1568.44 697.948 1568.61 697.948ZM1545.06 758.565 1553.14 758.565 1557.97 739.584 1578.79 739.584 1583.97 758.565 1592.06 758.565 1573.52 692.671 1563.86 692.671Z" fill="#181717" fill-rule="evenodd" transform="matrix(1.00051 0 0 1 355.978 856.944)"/><path d="M1645.09 699.259 1655.36 699.259C1660.28 699.259 1669.13 699.527 1669.33 710.855 1669.84 717.07 1665.22 722.526 1659.01 723.04 1658.2 723.107 1657.39 723.087 1656.59 722.98L1645.08 722.98ZM1645.09 729.568 1657.83 729.568C1666.44 729.568 1669.07 735.192 1669.07 741.78 1669.04 747.455 1669.81 753.101 1671.36 758.558L1679.88 758.558 1679.88 757.065C1678.12 757.065 1677.6 754.166 1677.33 752.934 1676.6 748.013 1676.19 743.186 1675.92 738.265 1674.87 729.481 1672.76 726.756 1664.24 725.945L1664.24 725.771C1671.55 725.024 1677.05 718.791 1676.89 711.45 1677.33 696.23 1668.55 692.65 1654.75 692.65L1637.79 692.65 1637.79 758.544 1645.09 758.544Z" fill="#181717" fill-rule="evenodd" transform="matrix(1.00051 0 0 1 329.823 856.944)"/><path d="M0 0 7.29097 0 7.29097 65.8941 3.04117e-07 65.8941Z" fill="#181717" transform="matrix(1.00051 0 0 1 2034.4 1549.62)"/><path d="M1810.23 723.872C1810.15 742.933 1808.21 753.043 1796.09 753.043 1783.96 753.043 1782.03 742.933 1781.95 723.872 1781.85 709.203 1784.67 697.426 1795.91 697.426 1807.51 697.426 1810.32 709.196 1810.23 723.872M1774.39 723.698C1774.56 741.976 1776.85 759.631 1796.09 759.631 1815.32 759.631 1817.7 741.976 1817.79 723.698 1817.87 708.587 1815.5 690.845 1796.26 690.845 1776.69 690.845 1774.39 708.594 1774.39 723.698" fill="#181717" fill-rule="evenodd" transform="matrix(1.00051 0 0 1 291.291 857.458)"/><path d="M876.692 607.194 876.692 575.385 901.906 575.385 901.906 607.194 909.197 607.194 909.197 541.3 901.906 541.3 901.906 568.797 876.692 568.797 876.692 541.3 869.401 541.3 869.401 607.194Z" fill="#181717" fill-rule="evenodd" transform="matrix(1.00051 0 0 1 546.554 899.617)"/><path d="M993.109 572.508C993.022 591.569 991.087 601.679 978.969 601.679 966.851 601.679 964.909 591.569 964.822 572.508 964.735 557.839 967.547 546.062 978.788 546.062 990.384 546.062 993.196 557.832 993.101 572.508M957.263 572.334C957.437 590.612 959.727 608.267 978.962 608.267 998.196 608.267 1000.57 590.612 1000.66 572.334 1000.74 557.223 998.37 539.481 979.128 539.481 959.56 539.481 957.255 557.23 957.255 572.334" fill="#181717" fill-rule="evenodd" transform="matrix(1.00051 0 0 1 521.77 900.132)"/><path d="M1084.57 558.093C1085.3 545.707 1077.9 539.467 1065.87 539.467 1056.34 538.865 1048.12 546.105 1047.52 555.636 1047.48 556.249 1047.47 556.864 1047.5 557.477 1046.71 563.604 1049.83 569.571 1055.32 572.414 1058.84 574.255 1064.63 576.095 1068.24 577.487 1074.91 580.031 1078.96 580.118 1078.96 590.134 1079.26 596.234 1074.56 601.428 1068.46 601.734 1067.77 601.769 1067.08 601.739 1066.39 601.643 1055.42 601.643 1053.57 595.49 1053.92 585.742L1046.62 585.742C1046.42 589.805 1046.9 593.873 1048.03 597.78 1051.2 604.74 1058.42 608.935 1066.04 608.238 1076.21 609.342 1085.35 601.992 1086.46 591.82 1086.57 590.709 1086.59 589.589 1086.51 588.474 1086.51 579.777 1084.22 575.378 1071.75 570.725 1068.24 569.406 1064.82 568.087 1061.29 566.768 1057.36 565.619 1054.77 561.885 1055.06 557.803 1055.06 552.73 1056.2 546.033 1066.83 546.033 1072.4 545.732 1077.17 550.005 1077.46 555.576 1077.51 556.412 1077.45 557.25 1077.29 558.071Z" fill="#181717" fill-rule="evenodd" transform="matrix(1.00051 0 0 1 496.572 900.132)"/><path d="M1141.75 547.91 1149.3 547.91C1158.18 547.736 1164.93 549.229 1164.93 559.861 1165.03 571.196 1158.88 572.609 1148.86 572.689L1141.75 572.689ZM1141.75 607.216 1141.75 579.255 1146.13 579.255C1151.88 579.596 1157.64 578.944 1163.17 577.328 1169.61 573.908 1173.3 566.907 1172.49 559.665 1172.77 554.433 1170.82 549.326 1167.13 545.613 1162.7 542.352 1157.23 540.819 1151.75 541.3L1134.45 541.3 1134.45 607.194Z" fill="#181717" fill-rule="evenodd" transform="matrix(1.00051 0 0 1 471.794 899.617)"/><path d="M0 0 7.29097 0 7.29097 65.8941 3.04117e-07 65.8941Z" fill="#181717" transform="matrix(1.00051 0 0 1 1667.91 1440.92)"/><path d="M1258.89 547.91 1275.93 547.91 1275.93 607.194 1283.23 607.194 1283.23 547.91 1300.27 547.91 1300.27 541.322 1258.89 541.322Z" fill="#181717" fill-rule="evenodd" transform="matrix(1.00051 0 0 1 436.691 899.617)"/><path d="M1360.49 581.625 1343.1 581.625 1351.79 546.569 1351.97 546.569ZM1328.42 607.187 1336.5 607.187 1341.33 588.213 1362.15 588.213 1367.33 607.187 1375.42 607.187 1356.88 541.293 1347.22 541.293Z" fill="#181717" fill-rule="evenodd" transform="matrix(1.00051 0 0 1 417.084 899.617)"/><path d="M1454.95 607.194 1454.95 600.607 1428.07 600.607 1428.07 541.3 1420.78 541.3 1420.78 607.194Z" fill="#181717" fill-rule="evenodd" transform="matrix(1.00051 0 0 1 391.031 899.617)"/><path d="M1582.13 572.856 1560.17 572.856 1560.17 579.444 1574.84 579.444C1574.92 589.895 1573.7 602.288 1560.17 601.672 1547.16 601.056 1547.69 583.553 1547.69 573.559 1547.69 562.311 1547.87 545.794 1562.28 546.062 1570.62 546.236 1574.05 551.86 1574.13 559.941L1581.51 559.941C1582.66 549.827 1575.39 540.697 1565.28 539.549 1564.17 539.423 1563.05 539.398 1561.94 539.474 1542.88 539.474 1540.16 557.926 1540.16 573.298 1540.16 588.67 1541.65 608.267 1561.24 608.267 1568.36 608.669 1574.74 603.884 1576.35 596.932L1576.52 596.932 1576.52 607.209 1582.15 607.209Z" fill="#181717" fill-rule="evenodd" transform="matrix(1.00051 0 0 1 357.371 900.132)"/><path d="M1666.02 607.194 1666.02 600.607 1640.19 600.607 1640.19 576.269 1664.27 576.269 1664.27 569.652 1640.19 569.652 1640.19 547.91 1665.84 547.91 1665.84 541.322 1632.9 541.322 1632.9 607.194Z" fill="#181717" fill-rule="evenodd" transform="matrix(1.00051 0 0 1 331.201 899.617)"/><path d="M1742.87 595.069C1742.87 597.526 1742.96 600.077 1743.04 602.447L1742.87 602.447C1741.99 599.374 1741.38 597.265 1740.59 595.236L1721.87 541.293 1710.02 541.293 1710.02 607.194 1717.3 607.194 1717.3 554.657C1717.3 551.324 1717.22 547.896 1717.13 544.554L1717.3 544.554C1717.8 547.936 1718.63 551.261 1719.76 554.484L1738.22 607.194 1750.17 607.194 1750.17 541.3 1742.88 541.3Z" fill="#181717" fill-rule="evenodd" transform="matrix(1.00051 0 0 1 309.448 899.617)"/><path d="M1833.09 607.194 1833.09 600.607 1807.26 600.607 1807.26 576.269 1831.32 576.269 1831.32 569.652 1807.26 569.652 1807.26 547.91 1832.89 547.91 1832.89 541.322 1799.94 541.322 1799.94 607.194Z" fill="#181717" fill-rule="evenodd" transform="matrix(1.00051 0 0 1 284.083 899.617)"/><path d="M1885.47 547.91 1895.75 547.91C1900.67 547.91 1909.52 548.178 1909.71 559.506 1910.23 565.717 1905.61 571.169 1899.4 571.684 1898.6 571.751 1897.78 571.73 1896.98 571.624L1885.47 571.624ZM1885.47 578.219 1898.21 578.219C1906.82 578.219 1909.45 583.843 1909.45 590.431 1909.42 596.103 1910.19 601.752 1911.73 607.209L1920.26 607.209 1920.26 605.716C1918.5 605.716 1917.98 602.817 1917.71 601.592 1916.98 596.671 1916.57 591.837 1916.3 586.923 1915.25 578.139 1913.13 575.414 1904.62 574.602L1904.62 574.429C1911.92 573.679 1917.42 567.453 1917.27 560.115 1917.71 544.895 1908.92 541.315 1895.13 541.315L1878.18 541.315 1878.18 607.194 1885.47 607.194Z" fill="#181717" fill-rule="evenodd" transform="matrix(1.00051 0 0 1 262.018 899.617)"/><path d="M1991.38 581.625 1973.99 581.625 1982.69 546.569 1982.86 546.569ZM1959.32 607.187 1967.4 607.187 1972.23 588.213 1993.06 588.213 1998.24 607.187 2006.32 607.187 1987.79 541.293 1978.13 541.293Z" fill="#181717" fill-rule="evenodd" transform="matrix(1.00051 0 0 1 239.133 899.617)"/><path d="M2085.83 607.194 2085.83 600.607 2058.95 600.607 2058.95 541.3 2051.65 541.3 2051.65 607.194Z" fill="#181717" fill-rule="evenodd" transform="matrix(1.00051 0 0 1 213.079 899.617)"/><path d="M0 0 7.29097 0 7.29097 65.8941 3.04117e-07 65.8941Z" fill="#181717" transform="matrix(1.00051 0 0 1 1418.07 1332.23)"/><path d="M951.595 443.706C951.595 446.17 951.682 448.714 951.769 451.084L951.595 451.084C950.718 448.011 950.102 445.909 949.312 443.88L930.577 389.915 918.72 389.915 918.72 455.809 926.019 455.809 926.019 403.294C926.019 399.96 925.932 396.525 925.838 393.191L926.019 393.191C926.511 396.569 927.338 399.892 928.476 403.112L946.928 455.823 958.879 455.823 958.879 389.915 951.595 389.915Z" fill="#181717" fill-rule="evenodd" transform="matrix(1.00051 0 0 1 532.639 942.29)"/><path d="M1024.44 450.555 1024.27 450.555 1009.05 389.937 1000.96 389.937 1019.85 455.831 1028.9 455.831 1047.88 389.937 1039.8 389.937Z" fill="#181717" fill-rule="evenodd" transform="matrix(1.00051 0 0 1 509.443 942.29)"/><path d="M1125.36 455.823 1125.36 449.236 1099.53 449.236 1099.53 424.906 1123.6 424.906 1123.6 418.318 1099.53 418.318 1099.53 396.532 1125.19 396.532 1125.19 389.915 1092.24 389.915 1092.24 455.809Z" fill="#181717" fill-rule="evenodd" transform="matrix(1.00051 0 0 1 483.701 942.29)"/><path d="M1204.12 406.729C1204.84 394.343 1197.44 388.103 1185.41 388.103 1175.88 387.506 1167.66 394.748 1167.06 404.28 1167.03 404.89 1167.02 405.502 1167.05 406.113 1166.26 412.238 1169.38 418.205 1174.86 421.05 1178.38 422.898 1184.17 424.739 1187.78 426.123 1194.45 428.667 1198.5 428.754 1198.5 438.77 1198.8 444.87 1194.1 450.064 1188 450.37 1187.31 450.404 1186.62 450.374 1185.94 450.279 1174.96 450.279 1173.11 444.133 1173.46 434.378L1166.16 434.378C1165.96 438.451 1166.44 442.529 1167.57 446.445 1170.74 453.407 1177.96 457.603 1185.58 456.903 1195.75 458.004 1204.89 450.649 1205.99 440.478 1206.11 439.369 1206.13 438.252 1206.05 437.139 1206.05 428.442 1203.77 424.043 1191.29 419.39 1187.78 418.071 1184.35 416.752 1180.83 415.433 1176.9 414.284 1174.31 410.551 1174.6 406.468 1174.6 401.395 1175.75 394.698 1186.37 394.698 1191.94 394.397 1196.71 398.67 1197 404.242 1197.05 405.077 1196.99 405.915 1196.83 406.736Z" fill="#181717" fill-rule="evenodd" transform="matrix(1.00051 0 0 1 462.854 942.805)"/><path d="M1245.31 396.525 1262.36 396.525 1262.36 455.823 1269.65 455.823 1269.65 396.525 1286.7 396.525 1286.7 389.915 1245.32 389.915Z" fill="#181717" fill-rule="evenodd" transform="matrix(1.00051 0 0 1 440.527 942.29)"/><path d="M0 0 7.29097 0 7.29097 65.8941 3.04117e-07 65.8941Z" fill="#181717" transform="matrix(1.00051 0 0 1 1748.92 1332.23)"/><path d="M1418.41 421.485 1396.45 421.485 1396.45 428.073 1411.09 428.073C1411.17 438.524 1409.94 450.917 1396.42 450.294 1383.41 449.685 1383.94 432.175 1383.94 422.181 1383.94 410.94 1384.11 394.423 1398.53 394.684 1406.87 394.858 1410.3 400.482 1410.39 408.563L1417.77 408.563C1418.91 398.449 1411.65 389.319 1401.53 388.17 1400.42 388.045 1399.31 388.02 1398.2 388.096 1379.14 388.096 1376.41 406.548 1376.41 421.92 1376.41 437.292 1377.91 456.889 1397.5 456.889 1404.62 457.288 1411 452.504 1412.61 445.554L1412.78 445.554 1412.78 455.867 1418.41 455.867Z" fill="#181717" fill-rule="evenodd" transform="matrix(1.00051 0 0 1 403.546 942.805)"/><path d="M1493.54 430.262 1476.15 430.262 1484.84 395.205 1485.02 395.205ZM1461.47 455.823 1469.55 455.823 1474.39 436.85 1495.21 436.85 1500.39 455.823 1508.47 455.823 1489.94 389.915 1480.28 389.915Z" fill="#181717" fill-rule="evenodd" transform="matrix(1.00051 0 0 1 379.559 942.29)"/><path d="M1589.69 409.193C1591.17 399.13 1584.21 389.776 1574.14 388.301 1573.12 388.151 1572.1 388.088 1571.07 388.11 1552.35 388.11 1550.16 406.729 1550.16 421.579 1550.16 437.306 1550.88 456.903 1571.18 456.903 1576.9 457.066 1582.31 454.277 1585.5 449.518 1588.12 445.349 1589.47 440.501 1589.37 435.574 1589.55 434.255 1589.55 432.849 1589.73 431.537L1582.44 431.537C1582.26 433.023 1582.17 434.516 1582 436.016 1581.12 443.227 1579.27 450.337 1570.58 450.337 1557.22 450.337 1557.41 430.392 1557.76 421.434 1557.76 412.737 1557.93 394.727 1570.58 394.727 1579.72 394.727 1582.26 401.402 1582.45 409.222Z" fill="#181717" fill-rule="evenodd" transform="matrix(1.00051 0 0 1 354.543 942.805)"/><path d="M0 0 7.29097 0 7.29097 65.8941 3.04117e-07 65.8941Z" fill="#181717" transform="matrix(1.00051 0 0 1 1969.5 1332.23)"/><path d="M1699.84 376.753 1705.73 376.753 1717.23 364.367 1707.66 364.367ZM1719.87 414.44C1719.79 433.501 1717.85 443.604 1705.73 443.604 1693.6 443.604 1691.66 433.501 1691.58 414.44 1691.49 399.771 1694.3 387.994 1705.54 387.994 1717.14 387.994 1719.95 399.771 1719.86 414.44M1684.02 414.266C1684.19 432.537 1686.48 450.199 1705.72 450.199 1724.95 450.199 1727.33 432.537 1727.42 414.266 1727.5 399.155 1725.14 381.413 1705.9 381.413 1686.33 381.413 1684.02 399.163 1684.02 414.266" fill="#181717" fill-rule="evenodd" transform="matrix(1.00051 0 0 1 316.778 949.501)"/><path d="M1809.41 443.706C1809.41 446.17 1809.49 448.714 1809.58 451.084L1809.41 451.084C1808.53 448.011 1807.91 445.909 1807.12 443.88L1788.41 389.915 1776.55 389.915 1776.55 455.809 1783.85 455.809 1783.85 403.294C1783.85 399.96 1783.76 396.525 1783.67 393.191L1783.85 393.191C1784.34 396.569 1785.16 399.892 1786.3 403.112L1804.75 455.823 1816.71 455.823 1816.71 389.915 1809.41 389.915Z" fill="#181717" fill-rule="evenodd" transform="matrix(1.00051 0 0 1 290.681 942.29)"/><path d="M880.961 304.46 880.961 274.586 902.138 274.586 902.138 264.925 880.961 264.925 880.961 248.255 903.544 248.255 903.544 238.566 868.662 238.566 868.662 304.46Z" fill="#181717" fill-rule="evenodd" transform="matrix(1.00051 0 0 1 546.764 984.963)"/><path d="M974.316 283.464C974.316 289.784 973.874 296.118 965.88 296.118 957.538 296.118 957.096 289.791 957.096 283.464L957.096 238.573 944.775 238.573 944.775 284.522C944.775 299.104 949.515 306.047 965.793 306.047 981.861 306.047 986.608 299.104 986.608 284.522L986.608 238.573 974.287 238.573Z" fill="#181717" fill-rule="evenodd" transform="matrix(1.00051 0 0 1 525.294 984.963)"/><path d="M1064.55 251.56C1064.55 257.46 1064.82 263.772 1065.17 270.085 1065.53 276.397 1065.96 282.804 1066.4 288.762L1066.22 288.762C1063.84 279.878 1060.91 271.152 1057.44 262.634L1047.86 238.573 1035.12 238.573 1035.12 304.467 1047.44 304.467 1047.44 292.074C1047.44 286.812 1047.18 280.231 1046.83 273.658 1046.47 267.084 1045.95 260.33 1045.51 254.894L1045.68 254.894C1048.06 263.779 1050.99 272.505 1054.47 281.021L1064.04 304.438 1076.87 304.438 1076.87 238.573 1064.55 238.573Z" fill="#181717" fill-rule="evenodd" transform="matrix(1.00051 0 0 1 499.813 984.963)"/><path d="M1138.24 294.792 1138.24 248.226 1146.31 248.226C1153.69 248.226 1155.28 254.38 1155.28 269.925 1155.28 288.986 1154.55 294.784 1143.59 294.784ZM1148.69 304.452C1151.84 304.67 1154.98 304.063 1157.82 302.691 1167.93 296.814 1167.93 281.782 1167.93 268.78 1168.66 261.012 1167.42 253.185 1164.31 246.03 1161.63 241.515 1156.81 238.696 1151.57 238.566L1125.92 238.566 1125.92 304.46Z" fill="#181717" fill-rule="evenodd" transform="matrix(1.00051 0 0 1 474.202 984.963)"/><path d="M1230.62 259.388C1231.24 256.315 1231.5 253.329 1231.86 250.248 1231.94 248.756 1232.12 247.263 1232.29 245.857L1232.46 245.857C1232.64 247.263 1232.81 248.756 1232.9 250.248 1233.25 253.329 1233.52 256.315 1234.12 259.388L1237.46 278.101 1226.92 278.101ZM1221.75 304.46 1225.01 287.79 1239.41 287.79 1242.67 304.46 1255.84 304.46 1240.91 238.566 1224.3 238.566 1208.58 304.46Z" fill="#181717" fill-rule="evenodd" transform="matrix(1.00051 0 0 1 450.896 984.963)"/><path d="M1325.49 280.384C1325.22 284.602 1326.01 295.495 1319.24 295.495 1310.81 295.495 1310.37 286.624 1310.37 281.174L1310.37 262.903C1310.37 257.829 1309.58 246.299 1319.24 246.299 1325.3 246.299 1324.87 254.206 1325.4 258.416L1337.52 258.416C1337.57 256.742 1337.48 255.068 1337.26 253.408 1337.6 244.309 1330.51 236.651 1321.41 236.303 1320.69 236.275 1319.96 236.295 1319.25 236.362 1299.58 236.362 1298.23 248.835 1297.73 265.613L1297.73 275.035C1297.73 292.603 1299.05 305.431 1319.25 305.431 1332.95 305.431 1336.99 296.212 1337.62 284.174 1337.7 282.949 1337.79 281.63 1337.88 280.398Z" fill="#181717" fill-rule="evenodd" transform="matrix(1.00051 0 0 1 425.742 985.587)"/><path d="M0 0 12.299 0 12.299 65.8941 1.93529e-07 65.8941Z" fill="#181717" transform="matrix(1.00051 0 0 1 1785.39 1223.54)"/><path d="M1445.74 225.585 1454.61 225.585 1467.61 212.757 1453.98 212.757ZM1444.24 256.242C1444.24 251.169 1443.45 239.638 1453.11 239.638 1462.25 239.638 1461.98 251.321 1461.98 256.597L1461.98 273.462C1461.98 279.789 1461.9 288.841 1453.11 288.841 1444.69 288.841 1444.24 279.97 1444.24 274.513ZM1431.59 268.367C1431.59 285.935 1432.91 298.763 1453.11 298.763 1473.32 298.763 1474.64 285.935 1474.64 268.367L1474.64 258.945C1474.11 242.16 1472.78 229.687 1453.11 229.687 1433.44 229.687 1432.1 242.16 1431.59 258.945Z" fill="#181717" fill-rule="evenodd" transform="matrix(1.00051 0 0 1 387.985 992.24)"/><path d="M1552.19 251.56C1552.19 257.46 1552.46 263.772 1552.81 270.085 1553.16 276.397 1553.6 282.804 1554.04 288.762L1553.86 288.762C1551.48 279.878 1548.55 271.152 1545.08 262.634L1535.5 238.573 1522.76 238.573 1522.76 304.467 1535.08 304.467 1535.08 292.074C1535.08 286.812 1534.82 280.231 1534.47 273.658 1534.11 267.084 1533.59 260.33 1533.15 254.894L1533.33 254.894C1535.71 263.778 1538.64 272.504 1542.11 281.021L1551.69 304.467 1564.51 304.467 1564.51 238.573 1552.19 238.573Z" fill="#181717" fill-rule="evenodd" transform="matrix(1.00051 0 0 1 362.265 984.963)"/></g></g></g><g clip-path="url(#clip3)"><g clip-path="url(#clip4)"><g clip-path="url(#clip5)"><g clip-path="url(#clip6)"><path d="M229.488 292.18 125.891 292.18 125.891 349.192 214.259 349.192 214.259 385.929 125.891 385.929 125.891 479.051 85.8487 479.051 85.8487 255.443 229.488 255.443ZM310.292 479.047 270.843 479.047 270.843 313.401 310.288 313.401ZM311.23 292.18 269.917 292.18 269.917 255.443 311.226 255.443ZM518.915 560.747 4.2584 560.747 4.2584 0 518.908 0ZM477.882 40.606 44.9325 40.606 44.9325 519.392 477.882 519.392ZM273.343 81.1251 273.343 173.861 251.083 173.861 251.083 137.207 226.606 137.207 226.606 173.861 204.35 173.861 204.35 81.1251 226.606 81.1251 226.606 116.917 251.083 116.917 251.083 81.1251ZM436.304 81.1251 436.304 141.257C436.304 161.445 420.685 174.587 401.511 174.587 382.337 174.587 366.718 161.445 366.718 141.257L366.718 81.1251 388.974 81.1251 388.974 140.656C388.974 149.441 393.849 154.183 401.526 154.183 409.203 154.183 414.191 149.407 414.191 140.656L414.191 81.1251ZM325.733 147.906C326.938 144.561 327.446 141.005 327.227 137.456 327.227 131.511 327.265 123.433 319.228 123.433 311.192 123.433 311.358 131.553 311.358 137.456 311.358 143.36 311.207 151.604 319.228 151.604 321.977 151.945 324.623 150.441 325.737 147.906M348.379 104.622 348.379 168.94C348.379 185.83 336.194 198.087 317.633 198.087 307.457 198.814 297.517 194.797 290.706 187.203L304.32 173.441C308.48 177.446 310.723 179.412 316.906 179.412 322.17 179.876 326.814 175.985 327.277 170.721 327.336 170.051 327.325 169.377 327.242 168.71 323.22 170.356 318.912 171.192 314.565 171.172 308.247 171.371 302.108 169.059 297.49 164.742 290.603 157.844 290.218 148.48 290.218 137.456 290.218 126.432 290.596 117.182 297.494 110.295 302.158 105.974 308.336 103.664 314.69 103.866 319.308 103.65 323.874 104.908 327.73 107.458L327.73 104.603Z" fill="#0098B9" fill-rule="evenodd" transform="matrix(1.00044 0 0 1 789.195 1052)"/><path d="M23.4477 862.269 23.2699 862.269 8.07809 801.683 0 801.683 18.8754 867.525 27.9178 867.525 46.8953 801.672 38.8097 801.672Z" fill="#FFFFFF" fill-rule="evenodd" transform="matrix(1.00044 0 0 1 787.595 1352.89)"/><path d="M73.289 841.971 55.8924 841.971 64.5907 806.94 64.7685 806.94ZM41.2225 867.525 49.3157 867.525 54.1414 848.555 74.9417 848.555 80.1153 867.525 88.1972 867.525 69.666 801.672 60.0298 801.672Z" fill="#FFFFFF" fill-rule="evenodd" transform="matrix(1.00044 0 0 1 803.081 1352.89)"/><path d="M123.588 867.525 123.588 860.941 96.7367 860.941 96.7367 801.672 89.4301 801.672 89.4301 867.525Z" fill="#FFFFFF" fill-rule="evenodd" transform="matrix(1.00044 0 0 1 821.173 1352.89)"/><path d="M162.004 867.525 162.004 860.941 136.189 860.941 136.189 836.62 160.25 836.62 160.25 830.028 136.189 830.028 136.189 808.256 161.827 808.256 161.827 801.672 128.902 801.672 128.902 867.525Z" fill="#FFFFFF" fill-rule="evenodd" transform="matrix(1.00044 0 0 1 835.997 1352.89)"/><path d="M201.975 855.412C201.975 857.874 202.062 860.415 202.153 862.787L201.975 862.787C201.098 859.712 200.481 857.605 199.706 855.601L181.001 801.683 169.141 801.683 169.141 867.54 176.421 867.54 176.421 815.022C176.421 811.682 176.338 808.26 176.251 804.924L176.421 804.924C176.92 808.302 177.745 811.624 178.883 814.844L197.323 867.529 209.267 867.529 209.267 801.672 201.975 801.672Z" fill="#FFFFFF" fill-rule="evenodd" transform="matrix(1.00044 0 0 1 851.105 1352.89)"/><path d="M254.248 821.802C254.604 810.037 248.099 800.726 235.634 800.726 216.936 800.726 214.735 819.34 214.735 834.181 214.735 849.898 215.439 869.481 235.721 869.481 241.445 869.647 246.852 866.858 250.035 862.098 252.661 857.924 254.005 853.07 253.9 848.139 254.078 846.823 254.078 845.42 254.248 844.104L246.957 844.104C246.779 845.598 246.692 847.088 246.518 848.582 245.641 855.768 243.791 862.893 235.101 862.893 221.754 862.893 221.932 842.962 222.28 834.01 222.28 825.312 222.458 807.318 235.101 807.318 244.234 807.318 246.779 813.993 246.953 821.802Z" fill="#FFFFFF" fill-rule="evenodd" transform="matrix(1.00044 0 0 1 868.225 1352.53)"/><path d="M0 0 7.28768 0 7.28768 65.8539 1.73121e-07 65.8539Z" fill="#FFFFFF" transform="matrix(1.00044 0 0 1 1147 2154.56)"/><path d="M313.578 841.971 296.182 841.971 304.88 806.94 305.058 806.94ZM281.527 867.525 289.605 867.525 294.438 848.555 315.239 848.555 320.412 867.525 328.49 867.525 309.959 801.672 300.319 801.672Z" fill="#FFFFFF" fill-rule="evenodd" transform="matrix(1.00044 0 0 1 893.306 1352.89)"/><path d="M4.4664 772.638C4.4664 784.403 12.2835 790.114 24.2267 790.114 36.1699 790.114 43.9833 784.403 43.9833 772.638L43.9833 722.679 36.6842 722.679 36.6842 770.006C36.7712 775.187 35.8976 783.53 24.204 783.53 12.5105 783.53 11.6482 775.187 11.7238 770.006L11.7238 722.687 4.4664 722.687Z" fill="#FFFFFF" fill-rule="evenodd" transform="matrix(1.00044 0 0 1 789.271 1323.24)"/><path d="M84.1846 776.42C84.1846 778.882 84.2678 781.423 84.3624 783.795L84.1846 783.795C83.3072 780.72 82.6908 778.613 81.9155 776.609L63.1952 722.683 51.3428 722.683 51.3428 788.541 58.6191 788.541 58.6191 736.033C58.6191 732.694 58.5359 729.271 58.449 725.932L58.6191 725.932C59.1179 729.311 59.9424 732.635 61.0811 735.855L79.5216 788.541 91.4648 788.541 91.4648 722.683 84.1846 722.683Z" fill="#FFFFFF" fill-rule="evenodd" transform="matrix(1.00044 0 0 1 806.872 1323.24)"/><path d="M0 0 7.28768 0 7.28768 65.8539 1.73121e-07 65.8539Z" fill="#FFFFFF" transform="matrix(1.00044 0 0 1 924.937 2045.93)"/><path d="M143.579 783.273 143.401 783.273 128.206 722.687 120.135 722.687 139.011 788.522 148.057 788.522 167.019 722.668 158.949 722.668Z" fill="#FFFFFF" fill-rule="evenodd" transform="matrix(1.00044 0 0 1 832.706 1323.24)"/><path d="M200.856 788.522 200.856 781.938 175.044 781.938 175.044 757.616 199.105 757.616 199.105 751.043 175.044 751.043 175.044 729.271 200.682 729.271 200.682 722.687 167.757 722.687 167.757 788.522Z" fill="#FFFFFF" fill-rule="evenodd" transform="matrix(1.00044 0 0 1 850.587 1323.24)"/><path d="M215.855 729.271 226.126 729.271C231.043 729.271 239.911 729.536 240.093 740.859 240.263 752.36 230.782 752.889 227.359 752.961L215.855 752.961ZM215.855 759.564 228.588 759.564C237.192 759.564 239.828 765.18 239.828 771.772 239.796 777.44 240.56 783.085 242.097 788.541L250.625 788.541 250.625 787.047C248.867 787.047 248.356 784.146 248.076 782.917 247.373 778.001 246.942 773.175 246.673 768.255 245.618 759.473 243.511 756.754 234.995 755.964L234.995 755.786C242.294 755.035 247.794 748.807 247.637 741.471 248.076 726.284 239.295 722.683 225.51 722.683L208.567 722.683 208.567 788.537 215.855 788.537Z" fill="#FFFFFF" fill-rule="evenodd" transform="matrix(1.00044 0 0 1 865.91 1323.24)"/><path d="M291.394 740.345C292.097 727.966 284.719 721.73 272.696 721.73 263.168 721.13 254.957 728.368 254.357 737.896 254.318 738.508 254.312 739.12 254.339 739.732 254.339 746.229 255.92 751.497 262.152 754.655 265.669 756.501 271.463 758.343 275.064 759.753 281.739 762.298 285.778 762.4 285.778 772.392 285.778 780.122 280.597 783.897 273.222 783.897 262.254 783.897 260.401 777.755 260.742 768.013L253.462 768.013C253.264 772.073 253.741 776.138 254.872 780.043 258.037 787 265.259 791.193 272.87 790.492 285.513 790.492 293.334 783.205 293.334 770.736 293.334 762.037 291.065 757.65 278.585 752.999 275.075 751.683 271.652 750.351 268.139 749.047 264.203 747.914 261.6 744.176 261.903 740.091 261.903 735.001 263.037 728.322 273.668 728.322 279.237 728.023 283.994 732.294 284.293 737.863 284.338 738.698 284.279 739.535 284.117 740.356Z" fill="#FFFFFF" fill-rule="evenodd" transform="matrix(1.00044 0 0 1 882.769 1322.89)"/><path d="M0 0 7.28768 0 7.28768 65.8539 1.73121e-07 65.8539Z" fill="#FFFFFF" transform="matrix(1.00044 0 0 1 1200.46 2045.93)"/><path d="M320.639 729.271 337.658 729.271 337.658 788.522 344.945 788.522 344.945 729.271 361.964 729.271 361.964 722.687 320.639 722.687Z" fill="#FFFFFF" fill-rule="evenodd" transform="matrix(1.00044 0 0 1 907.99 1323.24)"/><path d="M388.966 762.987 371.57 762.987 380.268 727.955 380.446 727.955ZM356.915 788.541 364.993 788.541 369.826 769.571 390.627 769.571 395.8 788.541 403.905 788.541 385.374 722.687 375.707 722.687Z" fill="#FFFFFF" fill-rule="evenodd" transform="matrix(1.00044 0 0 1 921.615 1323.24)"/><path d="M412.603 729.271 422.875 729.271C427.791 729.271 436.66 729.536 436.834 740.859 437.011 752.36 427.53 752.889 424.1 752.961L412.603 752.961ZM412.603 759.564 425.337 759.564C433.94 759.564 436.573 765.18 436.573 771.772 436.538 777.44 437.302 783.085 438.842 788.541L447.362 788.541 447.362 787.047C445.604 787.047 445.093 784.146 444.813 782.917 444.11 778.001 443.679 773.175 443.41 768.255 442.359 759.473 440.249 756.754 431.732 755.964L431.732 755.786C439.03 755.033 444.53 748.807 444.375 741.471 444.813 726.284 436.032 722.683 422.247 722.683L405.304 722.683 405.304 788.537 412.603 788.537Z" fill="#FFFFFF" fill-rule="evenodd" transform="matrix(1.00044 0 0 1 939.783 1323.24)"/><path d="M0 0 7.28768 0 7.28768 65.8539 1.73121e-07 65.8539Z" fill="#FFFFFF" transform="matrix(1.00044 0 0 1 1411.17 2045.93)"/><path d="M512.407 754.742C512.324 773.795 510.387 783.897 498.27 783.897 486.153 783.897 484.228 773.795 484.137 754.742 484.043 740.08 486.856 728.314 498.096 728.314 509.684 728.314 512.494 740.08 512.407 754.742M476.585 754.564C476.763 772.831 479.047 790.492 498.27 790.492 517.494 790.492 519.872 772.842 519.959 754.564 520.046 739.463 517.69 721.73 498.448 721.73 478.869 721.73 476.589 739.467 476.589 754.564" fill="#FFFFFF" fill-rule="evenodd" transform="matrix(1.00044 0 0 1 966.548 1322.89)"/><path d="M11.6293 709.552 11.6293 677.785 36.8279 677.785 36.8279 709.552 44.1156 709.552 44.1156 643.699 36.8279 643.699 36.8279 671.182 11.6293 671.182 11.6293 643.699 4.3416 643.699 4.3416 709.552Z" fill="#FFFFFF" fill-rule="evenodd" transform="matrix(1.00044 0 0 1 789.225 1293.6)"/><path d="M86.0151 675.758C85.9319 694.811 83.9955 704.912 71.8822 704.912 59.7688 704.912 57.8325 694.811 57.7455 675.758 57.6585 661.095 60.4647 649.33 71.7044 649.33 83.2921 649.33 86.1021 661.095 86.0151 675.758M50.1931 675.58C50.3709 693.846 52.6551 711.508 71.8822 711.508 91.1093 711.508 93.4843 693.861 93.5675 675.58 93.6545 660.479 91.2984 642.746 72.0562 642.746 52.4774 642.746 50.1931 660.483 50.1931 675.58" fill="#FFFFFF" fill-rule="evenodd" transform="matrix(1.00044 0 0 1 806.44 1293.24)"/><path d="M134.745 661.356C135.448 648.978 128.07 642.742 116.047 642.742 106.519 642.142 98.3077 649.38 97.7077 658.908 97.6692 659.519 97.6632 660.132 97.6897 660.744 97.6897 667.241 99.2706 672.509 105.503 675.667 109.02 677.512 114.814 679.354 118.414 680.765 125.089 683.31 129.129 683.412 129.129 693.404 129.129 701.134 123.947 704.908 116.573 704.908 105.605 704.908 103.752 698.759 104.092 689.024L96.8161 689.024C96.6159 693.084 97.09 697.15 98.2192 701.055 101.386 708.01 108.606 712.202 116.217 711.504 128.86 711.504 136.681 704.216 136.681 691.747 136.681 683.049 134.412 678.662 121.932 674.01 118.422 672.694 114.999 671.363 111.486 670.058 107.55 668.925 104.947 665.188 105.25 661.103 105.25 656.012 106.384 649.337 117.015 649.337 122.582 649.036 127.339 653.304 127.64 658.871 127.685 659.707 127.626 660.546 127.464 661.368Z" fill="#FFFFFF" fill-rule="evenodd" transform="matrix(1.00044 0 0 1 823.947 1293.24)"/><path d="M149.936 650.29 157.5 650.29C166.372 650.113 173.123 651.607 173.123 662.226 173.21 673.572 167.072 674.96 157.058 675.047L149.948 675.047ZM149.936 709.556 149.936 681.635 154.32 681.635C160.061 681.972 165.818 681.32 171.338 679.706 178.452 676.453 180.649 669.344 180.649 662.052 180.932 656.824 178.984 651.721 175.29 648.01 171.433 644.323 165.019 643.702 159.924 643.702L142.645 643.702 142.645 709.556Z" fill="#FFFFFF" fill-rule="evenodd" transform="matrix(1.00044 0 0 1 841.158 1293.6)"/><path d="M0 0 7.28768 0 7.28768 65.8539 1.73121e-07 65.8539Z" fill="#FFFFFF" transform="matrix(1.00044 0 0 1 1044.91 1937.3)"/><path d="M207.587 650.287 224.606 650.287 224.606 709.552 231.894 709.552 231.894 650.287 248.912 650.287 248.912 643.702 207.587 643.702Z" fill="#FFFFFF" fill-rule="evenodd" transform="matrix(1.00044 0 0 1 865.543 1293.6)"/><path d="M275.918 684.002 258.522 684.002 267.22 648.971 267.398 648.971ZM243.867 709.552 251.945 709.552 256.79 690.571 277.59 690.571 282.771 709.534 290.827 709.534 272.295 643.68 262.659 643.68Z" fill="#FFFFFF" fill-rule="evenodd" transform="matrix(1.00044 0 0 1 879.164 1293.6)"/><path d="M326.217 709.552 326.217 702.968 299.366 702.968 299.366 643.699 292.059 643.699 292.059 709.552Z" fill="#FFFFFF" fill-rule="evenodd" transform="matrix(1.00044 0 0 1 897.26 1293.6)"/><path d="M396.311 676.109 374.376 676.109 374.376 682.694 389.038 682.694C389.125 693.139 387.904 705.521 374.376 704.908 361.381 704.296 361.896 686.82 361.896 676.809 361.896 665.569 362.077 649.061 376.475 649.326 384.818 649.496 388.24 655.12 388.327 663.198L395.709 663.198C395.88 650.907 388.683 642.742 376.119 642.742 357.074 642.742 354.347 661.182 354.347 676.544 354.347 691.997 355.841 711.493 375.416 711.493 382.542 711.894 388.92 707.102 390.521 700.147L390.698 700.147 390.698 710.419 396.315 710.419Z" fill="#FFFFFF" fill-rule="evenodd" transform="matrix(1.00044 0 0 1 920.646 1293.24)"/><path d="M435.85 709.552 435.85 702.968 410.035 702.968 410.035 678.647 434.095 678.647 434.095 672.063 410.035 672.063 410.035 650.29 435.673 650.29 435.673 643.699 402.747 643.699 402.747 709.552Z" fill="#FFFFFF" fill-rule="evenodd" transform="matrix(1.00044 0 0 1 938.826 1293.6)"/><path d="M475.829 697.439C475.829 699.894 475.916 702.443 475.999 704.814L475.829 704.814C474.951 701.739 474.316 699.633 473.54 697.628L454.843 643.718 442.99 643.718 442.99 709.571 450.278 709.571 450.278 657.045C450.278 653.709 450.195 650.287 450.108 646.947L450.278 646.947C450.777 650.326 451.599 653.649 452.733 656.871L471.177 709.549 483.12 709.549 483.12 643.699 475.832 643.699Z" fill="#FFFFFF" fill-rule="evenodd" transform="matrix(1.00044 0 0 1 953.934 1293.6)"/><path d="M523.034 709.552 523.034 702.968 497.219 702.968 497.219 678.647 521.275 678.647 521.275 672.063 497.219 672.063 497.219 650.29 522.856 650.29 522.856 643.699 489.927 643.699 489.927 709.552Z" fill="#FFFFFF" fill-rule="evenodd" transform="matrix(1.00044 0 0 1 971.557 1293.6)"/><path d="M538.025 650.283 548.304 650.283C553.221 650.283 562.082 650.548 562.26 661.878 562.437 673.379 552.956 673.904 549.537 673.98L538.025 673.98ZM538.025 680.576 550.759 680.576C559.363 680.576 561.995 686.192 561.995 692.784 561.963 698.453 562.734 704.099 564.283 709.552L572.796 709.552 572.796 708.059C571.037 708.059 570.527 705.162 570.251 703.933 569.544 699.016 569.116 694.187 568.84 689.27 567.796 680.489 565.678 677.766 557.162 676.975L557.162 676.798C564.459 676.047 569.959 669.821 569.805 662.487 570.247 647.295 561.462 643.695 547.677 643.695L530.73 643.695 530.73 709.549 538.018 709.549Z" fill="#FFFFFF" fill-rule="evenodd" transform="matrix(1.00044 0 0 1 986.884 1293.6)"/><path d="M605.127 684.002 587.731 684.002 596.429 648.971 596.607 648.971ZM573.083 709.552 581.161 709.552 585.987 690.59 606.787 690.59 611.961 709.552 620.039 709.552 601.508 643.699 591.864 643.699Z" fill="#FFFFFF" fill-rule="evenodd" transform="matrix(1.00044 0 0 1 1002.78 1293.6)"/><path d="M655.43 709.552 655.43 702.968 628.579 702.968 628.579 643.699 621.299 643.699 621.299 709.552Z" fill="#FFFFFF" fill-rule="evenodd" transform="matrix(1.00044 0 0 1 1020.88 1293.6)"/><path d="M0 0 7.28768 0 7.28768 65.8539 1.73121e-07 65.8539Z" fill="#FFFFFF" transform="matrix(1.00044 0 0 1 795.234 1828.67)"/><path d="M62.9267 618.451C62.9267 620.913 63.0137 623.454 63.0969 625.825L62.9267 625.825C62.0493 622.751 61.4328 620.644 60.6576 618.64L41.9524 564.729 30.0849 564.729 30.0849 630.583 37.3725 630.583 37.3725 578.06C37.3725 574.725 37.2893 571.298 37.1948 567.963L37.3725 567.963C37.8718 571.341 38.6963 574.663 39.8345 577.883L58.275 630.568 70.2182 630.568 70.2182 564.714 62.9267 564.714Z" fill="#FFFFFF" fill-rule="evenodd" transform="matrix(1.00044 0 0 1 798.892 1263.96)"/><path d="M96.4379 625.3 96.2602 625.3 81.0722 564.714 72.9903 564.714 91.8656 630.568 100.912 630.568 119.886 564.714 111.811 564.714Z" fill="#FFFFFF" fill-rule="evenodd" transform="matrix(1.00044 0 0 1 815.006 1263.96)"/><path d="M153.726 630.568 153.726 623.984 127.911 623.984 127.911 599.662 151.967 599.662 151.967 593.074 127.911 593.074 127.911 571.302 153.544 571.302 153.544 564.71 120.642 564.71 120.642 630.564Z" fill="#FFFFFF" fill-rule="evenodd" transform="matrix(1.00044 0 0 1 832.887 1263.96)"/><path d="M197.13 582.372C197.834 569.994 190.455 563.757 178.425 563.757 168.899 563.159 160.691 570.397 160.093 579.924 160.055 580.533 160.049 581.145 160.076 581.755 160.076 588.256 161.656 593.524 167.889 596.682 171.406 598.528 177.2 600.37 180.8 601.78 187.475 604.325 191.514 604.428 191.514 614.419 191.514 622.149 186.329 625.92 178.959 625.92 167.991 625.92 166.138 619.778 166.478 610.036L159.217 610.036C159.017 614.097 159.494 618.162 160.628 622.066 163.793 629.024 171.014 633.216 178.626 632.516 191.269 632.516 199.082 625.224 199.082 612.763 199.082 604.065 196.813 599.677 184.333 595.026 180.823 593.71 177.393 592.378 173.883 591.074 169.948 589.94 167.347 586.202 167.651 582.118 167.651 577.028 168.785 570.353 179.416 570.353 184.983 570.061 189.733 574.337 190.024 579.905 190.068 580.731 190.009 581.56 189.85 582.372Z" fill="#FFFFFF" fill-rule="evenodd" transform="matrix(1.00044 0 0 1 847.374 1263.6)"/><path d="M200.5 571.298 217.519 571.298 217.519 630.564 224.806 630.564 224.806 571.298 241.825 571.298 241.825 564.714 200.5 564.714Z" fill="#FFFFFF" fill-rule="evenodd" transform="matrix(1.00044 0 0 1 862.883 1263.96)"/><path d="M0 0 7.28768 0 7.28768 65.8539 1.73121e-07 65.8539Z" fill="#FFFFFF" transform="matrix(1.00044 0 0 1 1125.86 1828.67)"/><path d="M310.87 597.125 288.936 597.125 288.936 603.709 303.598 603.709C303.681 614.155 302.463 626.536 288.936 625.92 275.937 625.311 276.455 607.835 276.455 597.821 276.455 586.585 276.633 570.077 291.035 570.341 299.355 570.512 302.8 576.135 302.887 584.213L310.258 584.213C310.439 571.922 303.235 563.757 290.679 563.757 271.626 563.757 268.907 582.198 268.907 597.56 268.907 613.012 270.401 632.508 289.976 632.508 297.101 632.906 303.477 628.116 305.08 621.162L305.258 621.162 305.258 631.434 310.87 631.434Z" fill="#FFFFFF" fill-rule="evenodd" transform="matrix(1.00044 0 0 1 888.569 1263.6)"/><path d="M345.346 605.018 327.949 605.018 336.648 569.982 336.818 569.982ZM313.295 630.568 321.373 630.568 326.206 611.606 347.006 611.606 352.188 630.568 360.266 630.568 341.734 564.714 332.087 564.714Z" fill="#FFFFFF" fill-rule="evenodd" transform="matrix(1.00044 0 0 1 905.236 1263.96)"/><path d="M399.087 584.834C399.435 573.068 392.937 563.757 380.472 563.757 361.775 563.757 359.574 582.372 359.574 597.212 359.574 612.929 360.277 632.512 380.559 632.512 386.283 632.678 391.69 629.889 394.874 625.13 397.497 620.954 398.838 616.101 398.731 611.171 398.909 609.855 398.909 608.451 399.087 607.135L391.803 607.135C391.625 608.622 391.538 610.116 391.36 611.609 390.487 618.795 388.641 625.924 379.95 625.924 366.604 625.924 366.782 605.993 367.13 597.034 367.13 588.336 367.307 570.341 379.95 570.341 389.084 570.341 391.629 577.017 391.803 584.834Z" fill="#FFFFFF" fill-rule="evenodd" transform="matrix(1.00044 0 0 1 922.614 1263.6)"/><path d="M0 0 7.28768 0 7.28768 65.8539 1.73121e-07 65.8539Z" fill="#FFFFFF" transform="matrix(1.00044 0 0 1 1346.29 1828.67)"/><path d="M445.237 563.75 451.122 563.75 462.622 551.372 453.05 551.372ZM465.258 601.417C465.171 620.47 463.235 630.564 451.122 630.564 439.008 630.564 437.072 620.47 436.985 601.417 436.898 586.755 439.704 574.986 450.944 574.986 462.531 574.986 465.341 586.755 465.258 601.417M429.432 601.239C429.61 619.502 431.894 637.167 451.122 637.167 470.349 637.167 472.724 619.513 472.807 601.239 472.894 586.138 470.538 568.405 451.299 568.405 431.717 568.405 429.432 586.142 429.432 601.239" fill="#FFFFFF" fill-rule="evenodd" transform="matrix(1.00044 0 0 1 948.841 1258.94)"/><path d="M510.554 618.451C510.554 620.913 510.641 623.454 510.732 625.825L510.554 625.825C509.676 622.751 509.06 620.644 508.285 618.64L489.579 564.729 477.731 564.729 477.731 630.583 485.011 630.583 485.011 578.06C485.011 574.725 484.928 571.298 484.841 567.963L485.011 567.963C485.51 571.341 486.335 574.663 487.473 577.883L505.913 630.568 517.857 630.568 517.857 564.714 510.554 564.714Z" fill="#FFFFFF" fill-rule="evenodd" transform="matrix(1.00044 0 0 1 966.972 1263.96)"/><path d="M16.2621 551.58 16.2621 521.725 37.4406 521.725 37.4406 512.066 16.2621 512.066 16.2621 495.385 38.8323 495.385 38.8323 485.726 3.95585 485.726 3.95585 551.58Z" fill="#FFFFFF" fill-rule="evenodd" transform="matrix(1.00044 0 0 1 789.082 1234.31)"/><path d="M73.1869 530.598C73.1869 536.917 72.7445 543.241 64.7571 543.241 56.437 543.241 55.9756 536.917 55.9756 530.598L55.9756 485.73 43.6845 485.73 43.6845 531.653C43.6845 546.228 48.4232 553.16 64.6664 553.16 80.7318 553.16 85.4667 546.228 85.4667 531.653L85.4667 485.73 73.1756 485.73Z" fill="#FFFFFF" fill-rule="evenodd" transform="matrix(1.00044 0 0 1 803.996 1234.31)"/><path d="M120.226 498.705C120.226 504.605 120.491 510.913 120.846 517.236 121.202 523.56 121.637 529.947 122.068 535.907L121.898 535.907C119.519 527.025 116.586 518.301 113.116 509.786L103.54 485.741 90.8143 485.741 90.8143 551.595 103.105 551.595 103.105 539.236C103.105 533.979 102.844 527.402 102.493 520.829 102.145 514.173 101.615 507.509 101.177 502.075L101.354 502.075C103.732 510.957 106.665 519.681 110.136 528.196L119.708 551.599 132.528 551.599 132.528 485.73 120.226 485.73Z" fill="#FFFFFF" fill-rule="evenodd" transform="matrix(1.00044 0 0 1 821.696 1234.31)"/><path d="M150.496 541.921 150.496 495.385 158.574 495.385C165.949 495.385 167.526 501.534 167.526 517.074 167.526 536.127 166.83 541.921 155.855 541.921ZM160.945 551.58C164.091 551.799 167.239 551.192 170.079 549.821 180.169 543.944 180.169 528.926 180.169 515.928 180.169 505.04 179.382 497.756 176.576 493.187 173.898 488.672 169.086 485.852 163.839 485.722L138.201 485.722 138.201 551.576Z" fill="#FFFFFF" fill-rule="evenodd" transform="matrix(1.00044 0 0 1 839.489 1234.31)"/><path d="M203.348 506.537C203.961 503.463 204.225 500.486 204.581 497.404 204.664 495.91 204.842 494.42 205.019 493.013L205.197 493.013C205.375 494.416 205.545 495.91 205.636 497.404 205.991 500.483 206.249 503.455 206.865 506.537L210.204 525.243 199.661 525.243ZM194.479 551.58 197.732 534.898 212.129 534.898 215.382 551.58 228.55 551.58 213.623 485.726 197.036 485.726 181.318 551.58Z" fill="#FFFFFF" fill-rule="evenodd" transform="matrix(1.00044 0 0 1 855.675 1234.31)"/><path d="M255.591 528.567C255.326 532.78 256.116 543.672 249.354 543.672 240.928 543.672 240.486 534.803 240.486 529.357L240.486 511.095C240.486 506.004 239.699 494.503 249.354 494.503 255.405 494.503 254.982 502.404 255.504 506.605L267.628 506.605C267.668 504.933 267.577 503.26 267.356 501.602 266.479 490.362 260.333 484.746 249.354 484.584 229.689 484.584 228.373 497.064 227.847 513.821L227.847 523.216C227.847 540.782 229.163 553.595 249.354 553.595 263.056 553.595 267.091 544.379 267.712 532.349 267.795 531.12 267.882 529.804 267.973 528.567Z" fill="#FFFFFF" fill-rule="evenodd" transform="matrix(1.00044 0 0 1 873.148 1233.88)"/><path d="M0 0 12.2911 0 12.2911 65.8539 0 65.8539Z" fill="#FFFFFF" transform="matrix(1.00044 0 0 1 1162.32 1720.04)"/><path d="M311.835 485.079 320.703 485.079 333.702 472.258 320.087 472.258ZM310.341 515.712C310.341 510.622 309.551 499.121 319.21 499.121 328.343 499.121 328.078 510.8 328.078 516.068L328.078 532.924C328.078 539.247 327.991 548.293 319.21 548.293 310.784 548.293 310.341 539.425 310.341 533.975ZM297.698 527.814C297.698 545.374 299.018 558.194 319.21 558.194 339.401 558.194 340.721 545.374 340.721 527.814L340.721 518.42C340.195 501.647 338.875 489.179 319.21 489.179 299.544 489.179 298.228 501.659 297.698 518.42Z" fill="#FFFFFF" fill-rule="evenodd" transform="matrix(1.00044 0 0 1 899.379 1229.25)"/><path d="M374.697 498.705C374.697 504.605 374.962 510.913 375.31 517.236 375.658 523.56 376.1 529.947 376.539 535.907L376.361 535.907C373.983 527.026 371.053 518.302 367.587 509.786L358.012 485.741 345.286 485.741 345.286 551.595 357.581 551.595 357.581 539.236C357.581 533.979 357.32 527.402 356.968 520.829 356.62 514.173 356.09 507.509 355.648 502.075L355.829 502.075C358.207 510.956 361.137 519.68 364.603 528.196L374.179 551.599 386.996 551.599 386.996 485.73 374.705 485.73Z" fill="#FFFFFF" fill-rule="evenodd" transform="matrix(1.00044 0 0 1 917.245 1234.31)"/></g></g></g></g></g></svg>