<svg xmlns="http://www.w3.org/2000/svg" width="207.995" height="92.937" viewBox="0 0 207.995 92.937">
  <g id="Grupo_8" data-name="Grupo 8" transform="translate(-876.174 106)">
    <path id="Trazado_1" data-name="Trazado 1" d="M31.1,40.338h-14.3v7.87h12.2V53.28h-12.2V66.136H11.268V35.265H31.1Zm11.155,25.8H36.8V43.269h5.446Zm.129-25.8h-5.7V35.266h5.7ZM71.052,77.415H0V0H71.052ZM65.388,5.606H5.616V71.7H65.388ZM37.15,11.2V24H34.077v-5.06H30.7V24H27.625V11.2H30.7v4.941h3.379V11.2Zm22.5,0v8.3a4.81,4.81,0,0,1-9.61,0V11.2h3.073v8.218a1.745,1.745,0,1,0,3.481,0V11.2ZM44.383,20.419a3.605,3.605,0,0,0,.206-1.443c0-.821.005-1.936-1.1-1.936S42.4,18.162,42.4,18.977s-.021,1.953,1.086,1.953a.865.865,0,0,0,.9-.511m3.126-5.976v8.88a3.947,3.947,0,0,1-4.245,4.024,4.558,4.558,0,0,1-3.717-1.5l1.877-1.9a2.1,2.1,0,0,0,1.738.824,1.321,1.321,0,0,0,1.427-1.478,4.564,4.564,0,0,1-1.75.339,3.3,3.3,0,0,1-2.357-.885c-.951-.952-1-2.245-1-3.767s.053-2.8,1-3.75a3.337,3.337,0,0,1,2.374-.885,3.01,3.01,0,0,1,1.8.5v-.394Z" transform="translate(876.173 -106)" fill="#0098b9" fill-rule="evenodd"/>
    <path id="Trazado_2" data-name="Trazado 2" d="M122.047,124.823h-.024l-2.1-8.364h-1.115l2.606,9.092h1.249l2.618-9.092h-1.115Z" transform="translate(842.678 -138.832)" fill="#000" fill-rule="evenodd"/>
    <path id="Trazado_3" data-name="Trazado 3" d="M134.14,122.023h-2.4l1.2-4.836h.024Zm-4.425,3.528h1.115l.666-2.619h2.874l.714,2.619H136.2l-2.558-9.092h-1.333Z" transform="translate(839.604 -138.832)" fill="#fff" fill-rule="evenodd"/>
    <path id="Trazado_4" data-name="Trazado 4" d="M147.174,125.551v-.909h-3.71v-8.183h-1.006v9.092Z" transform="translate(836.011 -138.832)" fill="#000" fill-rule="evenodd"/>
    <path id="Trazado_5" data-name="Trazado 5" d="M157.465,125.551v-.909H153.9v-3.358h3.321v-.91H153.9v-3.006h3.539v-.909H152.9v9.092Z" transform="translate(833.069 -138.832)" fill="#fff" fill-rule="evenodd"/>
    <path id="Trazado_6" data-name="Trazado 6" d="M168.068,123.878c0,.34.012.691.024,1.018h-.024c-.121-.424-.206-.715-.315-.994l-2.582-7.444h-1.636v9.092h1.005V118.3c0-.461-.012-.934-.024-1.394h.024a7.318,7.318,0,0,0,.34,1.369l2.546,7.273h1.649v-9.092h-1.006Z" transform="translate(830.069 -138.832)" fill="#fff" fill-rule="evenodd"/>
    <path id="Trazado_7" data-name="Trazado 7" d="M181.046,119.115a2.542,2.542,0,0,0-2.57-2.91c-2.581,0-2.885,2.57-2.885,4.619,0,2.17.1,4.874,2.9,4.874a2.3,2.3,0,0,0,1.976-1.019,3.474,3.474,0,0,0,.533-1.927c.025-.182.025-.376.049-.557H180.04c-.024.206-.037.412-.06.618-.121.994-.376,1.975-1.576,1.975-1.843,0-1.818-2.752-1.77-3.988,0-1.2.024-3.684,1.77-3.684,1.261,0,1.612.921,1.637,2Z" transform="translate(826.671 -138.76)" fill="#fff" fill-rule="evenodd"/>
    <rect id="Rectángulo_1" data-name="Rectángulo 1" width="1.007" height="9.092" transform="translate(1011.085 -22.373)" fill="#fff"/>
    <path id="Trazado_8" data-name="Trazado 8" d="M197.677,122.023h-2.4l1.2-4.836h.024Zm-4.425,3.528h1.115l.667-2.619h2.873l.714,2.619h1.115l-2.557-9.092h-1.333Z" transform="translate(821.692 -138.832)" fill="#fff" fill-rule="evenodd"/>
    <path id="Trazado_9" data-name="Trazado 9" d="M119.992,102.471c0,1.624,1.079,2.413,2.728,2.413s2.727-.788,2.727-2.413v-6.9H124.44v6.534c.012.715-.108,1.866-1.721,1.866s-1.734-1.151-1.721-1.866V95.574h-1.007Z" transform="translate(842.345 -132.944)" fill="#fff" fill-rule="evenodd"/>
    <path id="Trazado_10" data-name="Trazado 10" d="M136.921,102.992c0,.34.011.691.024,1.018h-.024c-.121-.424-.206-.715-.315-.995l-2.582-7.443h-1.636v9.092h1.006V97.416c0-.461-.012-.934-.024-1.395h.024a7.314,7.314,0,0,0,.34,1.37l2.546,7.273h1.649V95.573h-1.006Z" transform="translate(838.851 -132.944)" fill="#fff" fill-rule="evenodd"/>
    <rect id="Rectángulo_2" data-name="Rectángulo 2" width="1.006" height="9.092" transform="translate(980.442 -37.37)" fill="#fff"/>
    <path id="Trazado_11" data-name="Trazado 11" d="M153.814,103.938h-.024l-2.1-8.364h-1.115l2.606,9.092h1.249l2.618-9.092h-1.114Z" transform="translate(833.722 -132.944)" fill="#fff" fill-rule="evenodd"/>
    <path id="Trazado_12" data-name="Trazado 12" d="M167.739,104.666v-.909h-3.564V100.4H167.5v-.91h-3.322V96.483h3.54v-.909h-4.546v9.092Z" transform="translate(830.173 -132.944)" fill="#fff" fill-rule="evenodd"/>
    <path id="Trazado_13" data-name="Trazado 13" d="M174.966,96.483h1.418c.679,0,1.9.037,1.928,1.6a1.559,1.559,0,0,1-1.758,1.673h-1.588Zm0,4.182h1.758c1.188,0,1.552.776,1.552,1.685a8.361,8.361,0,0,0,.315,2.315h1.176v-.206c-.243,0-.315-.4-.352-.57-.1-.679-.157-1.345-.194-2.024-.146-1.212-.437-1.588-1.612-1.7v-.024a1.945,1.945,0,0,0,1.746-1.976c.06-2.1-1.152-2.594-3.055-2.594h-2.34v9.092h1.006Z" transform="translate(827.13 -132.944)" fill="#fff" fill-rule="evenodd"/>
    <path id="Trazado_14" data-name="Trazado 14" d="M191.068,97.89c.1-1.709-.921-2.57-2.582-2.57a2.386,2.386,0,0,0-2.533,2.485,2.032,2.032,0,0,0,1.079,2.061c.485.254,1.285.508,1.782.7.921.351,1.479.363,1.479,1.745a1.526,1.526,0,0,1-1.733,1.588c-1.516,0-1.77-.848-1.721-2.194h-1.007a5.08,5.08,0,0,0,.195,1.661,2.48,2.48,0,0,0,2.485,1.443,2.556,2.556,0,0,0,2.825-2.727c0-1.2-.316-1.807-2.037-2.449-.485-.182-.957-.363-1.442-.546a1.194,1.194,0,0,1-.861-1.237c0-.7.158-1.624,1.624-1.624a1.394,1.394,0,0,1,1.443,1.661Z" transform="translate(823.784 -132.872)" fill="#fff" fill-rule="evenodd"/>
    <rect id="Rectángulo_3" data-name="Rectángulo 3" width="1.006" height="9.092" transform="translate(1018.464 -37.37)" fill="#fff"/>
    <path id="Trazado_15" data-name="Trazado 15" d="M203.594,96.483h2.352v8.183h1.006V96.483H209.3v-.909h-5.709Z" transform="translate(818.776 -132.944)" fill="#fff" fill-rule="evenodd"/>
    <path id="Trazado_16" data-name="Trazado 16" d="M217.611,101.138h-2.4l1.2-4.836h.024Zm-4.425,3.528H214.3l.667-2.619h2.873l.714,2.619h1.116l-2.558-9.092H215.78Z" transform="translate(816.072 -132.944)" fill="#fff" fill-rule="evenodd"/>
    <path id="Trazado_17" data-name="Trazado 17" d="M226.987,96.483h1.418c.679,0,1.9.037,1.927,1.6a1.558,1.558,0,0,1-1.758,1.673h-1.588Zm0,4.182h1.758c1.188,0,1.551.776,1.551,1.685a8.307,8.307,0,0,0,.316,2.315h1.176v-.206c-.243,0-.315-.4-.352-.57-.1-.679-.157-1.345-.194-2.024-.145-1.212-.437-1.588-1.612-1.7v-.024a1.945,1.945,0,0,0,1.746-1.976c.06-2.1-1.152-2.594-3.055-2.594h-2.34v9.092h1.006Z" transform="translate(812.465 -132.944)" fill="#fff" fill-rule="evenodd"/>
    <rect id="Rectángulo_4" data-name="Rectángulo 4" width="1.006" height="9.092" transform="translate(1047.54 -37.37)" fill="#fff"/>
    <path id="Trazado_18" data-name="Trazado 18" d="M249.774,99.879c-.012,2.63-.279,4.025-1.952,4.025s-1.939-1.395-1.951-4.025c-.013-2.024.376-3.649,1.927-3.649,1.6,0,1.988,1.624,1.975,3.649m-4.945-.024c.024,2.522.34,4.958,2.994,4.958s2.982-2.436,2.994-4.958c.012-2.085-.315-4.533-2.97-4.533-2.7,0-3.018,2.449-3.018,4.533" transform="translate(807.151 -132.873)" fill="#fff" fill-rule="evenodd"/>
    <path id="Trazado_19" data-name="Trazado 19" d="M120.965,83.78V79.391h3.479V83.78h1.006V74.688h-1.006v3.794h-3.479V74.688h-1.006V83.78Z" transform="translate(842.354 -127.056)" fill="#fff" fill-rule="evenodd"/>
    <path id="Trazado_20" data-name="Trazado 20" d="M137.028,78.994c-.012,2.63-.279,4.025-1.951,4.025s-1.94-1.395-1.952-4.025c-.012-2.024.376-3.649,1.927-3.649,1.6,0,1.988,1.624,1.975,3.649m-4.945-.024c.024,2.522.34,4.958,2.994,4.958s2.982-2.436,2.994-4.958c.011-2.085-.316-4.533-2.971-4.533-2.7,0-3.018,2.449-3.018,4.533" transform="translate(838.936 -126.985)" fill="#fff" fill-rule="evenodd"/>
    <path id="Trazado_21" data-name="Trazado 21" d="M149.648,77.005c.1-1.709-.921-2.57-2.581-2.57a2.386,2.386,0,0,0-2.534,2.485,2.03,2.03,0,0,0,1.079,2.061c.485.254,1.285.508,1.782.7.921.351,1.479.363,1.479,1.745a1.526,1.526,0,0,1-1.734,1.588c-1.514,0-1.769-.849-1.721-2.194h-1.006a5.078,5.078,0,0,0,.194,1.661,2.482,2.482,0,0,0,2.485,1.443,2.556,2.556,0,0,0,2.825-2.727c0-1.2-.316-1.807-2.037-2.449-.485-.182-.957-.364-1.443-.546a1.2,1.2,0,0,1-.86-1.237c0-.7.157-1.624,1.624-1.624a1.394,1.394,0,0,1,1.443,1.661Z" transform="translate(835.461 -126.985)" fill="#fff" fill-rule="evenodd"/>
    <path id="Trazado_22" data-name="Trazado 22" d="M157.537,75.6h1.042c1.225-.024,2.157.182,2.157,1.649.013,1.564-.835,1.759-2.217,1.77h-.982Zm0,8.183V79.925h.605a6.917,6.917,0,0,0,2.351-.266,2.452,2.452,0,0,0,1.286-2.437,2.552,2.552,0,0,0-.74-1.939,3.12,3.12,0,0,0-2.122-.595H156.53V83.78Z" transform="translate(832.044 -127.056)" fill="#fff" fill-rule="evenodd"/>
    <rect id="Rectángulo_5" data-name="Rectángulo 5" width="1.006" height="9.092" transform="translate(996.998 -52.368)" fill="#fff"/>
    <path id="Trazado_23" data-name="Trazado 23" d="M173.7,75.6h2.352V83.78h1.006V75.6h2.352v-.909H173.7Z" transform="translate(827.203 -127.056)" fill="#fff" fill-rule="evenodd"/>
    <path id="Trazado_24" data-name="Trazado 24" d="M187.719,80.252h-2.4l1.2-4.837h.024Zm-4.425,3.527h1.115l.666-2.618h2.873l.715,2.618h1.116l-2.558-9.092h-1.333Z" transform="translate(824.499 -127.056)" fill="#fff" fill-rule="evenodd"/>
    <path id="Trazado_25" data-name="Trazado 25" d="M200.753,83.78v-.909h-3.71V74.688h-1.006V83.78Z" transform="translate(820.906 -127.056)" fill="#fff" fill-rule="evenodd"/>
    <path id="Trazado_26" data-name="Trazado 26" d="M218.3,79.042h-3.03v.909h2.024c.012,1.442-.157,3.152-2.024,3.067-1.794-.085-1.722-2.5-1.722-3.879,0-1.552.025-3.831,2.013-3.794,1.152.024,1.624.8,1.636,1.915h1.018a2.543,2.543,0,0,0-2.7-2.824c-2.63,0-3.006,2.546-3.006,4.667s.206,4.825,2.909,4.825a2.023,2.023,0,0,0,2.085-1.564h.024v1.418h.776Z" transform="translate(816.264 -126.985)" fill="#fff" fill-rule="evenodd"/>
    <path id="Trazado_27" data-name="Trazado 27" d="M229.876,83.78v-.909h-3.564V79.513h3.322V78.6h-3.322V75.6h3.539v-.909h-4.546V83.78Z" transform="translate(812.655 -127.056)" fill="#fff" fill-rule="evenodd"/>
    <path id="Trazado_28" data-name="Trazado 28" d="M240.479,82.107c0,.339.012.691.024,1.018h-.024c-.121-.424-.206-.715-.315-.995l-2.582-7.443h-1.636V83.78h1.005V76.531c0-.46-.011-.933-.024-1.394h.024a7.314,7.314,0,0,0,.34,1.37l2.546,7.273h1.649V74.688h-1.006Z" transform="translate(809.655 -127.056)" fill="#fff" fill-rule="evenodd"/>
    <path id="Trazado_29" data-name="Trazado 29" d="M252.927,83.78v-.909h-3.564V79.513h3.321V78.6h-3.321V75.6H252.9v-.909h-4.546V83.78Z" transform="translate(806.157 -127.056)" fill="#fff" fill-rule="evenodd"/>
    <path id="Trazado_30" data-name="Trazado 30" d="M260.155,75.6h1.418c.679,0,1.9.037,1.927,1.6a1.557,1.557,0,0,1-1.757,1.672h-1.588Zm0,4.182h1.758c1.188,0,1.551.776,1.551,1.685a8.33,8.33,0,0,0,.315,2.315h1.176v-.206c-.243,0-.315-.4-.352-.569-.1-.679-.157-1.346-.194-2.024-.145-1.212-.437-1.588-1.612-1.7v-.024a1.945,1.945,0,0,0,1.746-1.975c.06-2.1-1.152-2.594-3.055-2.594h-2.339V83.78h1.006Z" transform="translate(803.114 -127.056)" fill="#fff" fill-rule="evenodd"/>
    <path id="Trazado_31" data-name="Trazado 31" d="M274.769,80.252h-2.4l1.2-4.837h.024Zm-4.424,3.527h1.115l.666-2.618H275l.715,2.618h1.115l-2.557-9.092h-1.333Z" transform="translate(799.958 -127.056)" fill="#fff" fill-rule="evenodd"/>
    <path id="Trazado_32" data-name="Trazado 32" d="M287.8,83.78v-.909h-3.709V74.688h-1.006V83.78Z" transform="translate(796.365 -127.056)" fill="#fff" fill-rule="evenodd"/>
    <rect id="Rectángulo_6" data-name="Rectángulo 6" width="1.006" height="9.092" transform="translate(962.543 -67.365)" fill="#fff"/>
    <path id="Trazado_33" data-name="Trazado 33" d="M131.3,61.222c0,.34.012.691.024,1.018H131.3c-.121-.424-.206-.714-.315-.994L128.4,53.8h-1.636v9.092h1.007V55.646c0-.46-.012-.934-.025-1.394h.025a7.269,7.269,0,0,0,.339,1.369l2.546,7.273h1.649V53.8H131.3Z" transform="translate(840.435 -121.168)" fill="#fff" fill-rule="evenodd"/>
    <path id="Trazado_34" data-name="Trazado 34" d="M141.351,62.167h-.024l-2.1-8.364h-1.115l2.606,9.092h1.249l2.618-9.092h-1.115Z" transform="translate(837.236 -121.168)" fill="#fff" fill-rule="evenodd"/>
    <path id="Trazado_35" data-name="Trazado 35" d="M155.276,62.894v-.909h-3.564V58.628h3.321v-.909h-3.321V54.713h3.54V53.8h-4.546v9.092Z" transform="translate(833.686 -121.168)" fill="#fff" fill-rule="evenodd"/>
    <path id="Trazado_36" data-name="Trazado 36" d="M166.143,56.12c.1-1.709-.921-2.57-2.582-2.57a2.386,2.386,0,0,0-2.533,2.485,2.03,2.03,0,0,0,1.078,2.061c.485.255,1.285.509,1.782.7.921.351,1.479.363,1.479,1.745a1.526,1.526,0,0,1-1.733,1.588c-1.515,0-1.77-.848-1.722-2.194h-1.006A5.081,5.081,0,0,0,161.1,61.6a2.481,2.481,0,0,0,2.485,1.443,2.556,2.556,0,0,0,2.824-2.727c0-1.2-.314-1.807-2.036-2.449-.485-.182-.958-.364-1.443-.546a1.2,1.2,0,0,1-.86-1.237c0-.7.158-1.624,1.624-1.624a1.394,1.394,0,0,1,1.443,1.661Z" transform="translate(830.811 -121.097)" fill="#fff" fill-rule="evenodd"/>
    <path id="Trazado_37" data-name="Trazado 37" d="M171.827,54.712h2.352v8.182h1.006V54.712h2.352V53.8h-5.709Z" transform="translate(827.732 -121.168)" fill="#fff" fill-rule="evenodd"/>
    <rect id="Rectángulo_7" data-name="Rectángulo 7" width="1.006" height="9.092" transform="translate(1008.169 -67.365)" fill="#fff"/>
    <path id="Trazado_38" data-name="Trazado 38" d="M195.71,58.156h-3.03v.909H194.7c.011,1.442-.158,3.152-2.024,3.066-1.794-.084-1.722-2.5-1.722-3.879,0-1.551.024-3.83,2.013-3.794,1.151.024,1.624.8,1.637,1.915h1.018a2.543,2.543,0,0,0-2.7-2.824c-2.63,0-3.006,2.546-3.006,4.667s.206,4.825,2.909,4.825a2.024,2.024,0,0,0,2.085-1.564h.024V62.9h.776Z" transform="translate(822.632 -121.097)" fill="#fff" fill-rule="evenodd"/>
    <path id="Trazado_39" data-name="Trazado 39" d="M206.077,59.367h-2.4l1.2-4.837h.024Zm-4.425,3.527h1.115l.667-2.618h2.873l.715,2.618h1.115L205.58,53.8h-1.333Z" transform="translate(819.324 -121.168)" fill="#fff" fill-rule="evenodd"/>
    <path id="Trazado_40" data-name="Trazado 40" d="M219.344,56.46a2.541,2.541,0,0,0-2.57-2.909c-2.582,0-2.885,2.569-2.885,4.618,0,2.17.1,4.874,2.9,4.874a2.3,2.3,0,0,0,1.976-1.019A3.481,3.481,0,0,0,219.3,60.1c.024-.182.024-.376.049-.557h-1.006c-.024.205-.037.411-.061.618-.121.995-.376,1.976-1.575,1.976-1.843,0-1.818-2.752-1.769-3.988,0-1.2.024-3.685,1.769-3.685,1.261,0,1.612.921,1.637,2Z" transform="translate(815.874 -121.097)" fill="#fff" fill-rule="evenodd"/>
    <rect id="Rectángulo_8" data-name="Rectángulo 8" width="1.006" height="9.092" transform="translate(1038.587 -67.365)" fill="#fff"/>
    <path id="Trazado_41" data-name="Trazado 41" d="M234.542,51.984h.812l1.588-1.709h-1.321Zm2.764,5.2c-.012,2.63-.279,4.024-1.952,4.024s-1.94-1.394-1.952-4.024c-.012-2.024.376-3.649,1.927-3.649,1.6,0,1.988,1.625,1.976,3.649m-4.946-.024c.024,2.521.34,4.958,2.994,4.958s2.982-2.437,2.994-4.958c.012-2.085-.314-4.533-2.969-4.533-2.7,0-3.019,2.449-3.019,4.533" transform="translate(810.666 -120.173)" fill="#fff" fill-rule="evenodd"/>
    <path id="Trazado_42" data-name="Trazado 42" d="M249.66,61.222c0,.34.012.691.024,1.018h-.024c-.121-.424-.206-.714-.315-.994L246.763,53.8h-1.636v9.092h1.006V55.646c0-.46-.012-.934-.024-1.394h.024a7.267,7.267,0,0,0,.339,1.369l2.546,7.273h1.649V53.8H249.66Z" transform="translate(807.067 -121.168)" fill="#fff" fill-rule="evenodd"/>
    <path id="Trazado_43" data-name="Trazado 43" d="M121.554,42.009V37.887h2.922V36.554h-2.922v-2.3h3.116V32.917h-4.813v9.092Z" transform="translate(842.383 -115.28)" fill="#fff" fill-rule="evenodd"/>
    <path id="Trazado_44" data-name="Trazado 44" d="M134.435,39.112c0,.872-.061,1.746-1.164,1.746-1.151,0-1.212-.873-1.212-1.746V32.918h-1.7v6.34c0,2.012.654,2.97,2.9,2.97,2.217,0,2.872-.958,2.872-2.97v-6.34h-1.7Z" transform="translate(839.422 -115.28)" fill="#fff" fill-rule="evenodd"/>
    <path id="Trazado_45" data-name="Trazado 45" d="M146.885,34.71c0,.814.037,1.685.086,2.556s.109,1.755.169,2.577h-.024a30.386,30.386,0,0,0-1.212-3.605l-1.322-3.32h-1.757V42.01h1.7V40.3c0-.726-.036-1.634-.085-2.541s-.121-1.839-.182-2.589h.024a30.263,30.263,0,0,0,1.212,3.605l1.321,3.231h1.77V32.918h-1.7Z" transform="translate(835.908 -115.28)" fill="#fff" fill-rule="evenodd"/>
    <path id="Trazado_46" data-name="Trazado 46" d="M157.053,40.675V34.25h1.114c1.018,0,1.237.849,1.237,2.994,0,2.63-.1,3.43-1.613,3.43Zm1.442,1.333a2.5,2.5,0,0,0,1.26-.243c1.395-.811,1.395-2.885,1.395-4.679a6.365,6.365,0,0,0-.5-3.139,2.105,2.105,0,0,0-1.758-1.03h-3.539v9.092Z" transform="translate(832.376 -115.28)" fill="#fff" fill-rule="evenodd"/>
    <path id="Trazado_47" data-name="Trazado 47" d="M169.8,35.79c.085-.424.121-.836.17-1.261.011-.206.036-.412.06-.606h.024c.024.194.048.4.06.606.049.425.085.837.169,1.261l.461,2.582h-1.455Zm-1.224,6.219.449-2.3h1.988l.449,2.3h1.818l-2.061-9.092h-2.291l-2.17,9.092Z" transform="translate(829.162 -115.28)" fill="#fff" fill-rule="evenodd"/>
    <path id="Trazado_48" data-name="Trazado 48" d="M182.889,38.687c-.037.582.072,2.085-.862,2.085-1.163,0-1.224-1.224-1.224-1.976V36.275c0-.7-.108-2.291,1.224-2.291.837,0,.777,1.091.85,1.672h1.673a4.3,4.3,0,0,0-.037-.691,2.275,2.275,0,0,0-2.485-2.352c-2.714,0-2.9,1.721-2.969,4.036v1.3c0,2.424.182,4.194,2.969,4.194,1.891,0,2.449-1.272,2.535-2.933.011-.169.024-.351.036-.521Z" transform="translate(825.693 -115.194)" fill="#fff" fill-rule="evenodd"/>
    <rect id="Rectángulo_9" data-name="Rectángulo 9" width="1.697" height="9.092" transform="translate(1013.2 -82.362)" fill="#fff"/>
    <path id="Trazado_49" data-name="Trazado 49" d="M199.481,31.126h1.224l1.794-1.77h-1.88Zm-.206,4.23c0-.7-.109-2.291,1.224-2.291,1.261,0,1.224,1.612,1.224,2.34v2.327c0,.873-.012,2.122-1.224,2.122-1.163,0-1.224-1.224-1.224-1.977Zm-1.746,1.673c0,2.424.182,4.194,2.97,4.194s2.97-1.77,2.97-4.194v-1.3c-.073-2.316-.256-4.037-2.97-4.037s-2.9,1.721-2.97,4.037Z" transform="translate(820.486 -114.276)" fill="#fff" fill-rule="evenodd"/>
    <path id="Trazado_50" data-name="Trazado 50" d="M214.17,34.71c0,.814.037,1.685.085,2.556s.109,1.755.169,2.577H214.4a30.525,30.525,0,0,0-1.211-3.605l-1.322-3.32h-1.758V42.01h1.7V40.3c0-.726-.036-1.634-.085-2.541s-.121-1.839-.182-2.589h.025a30.414,30.414,0,0,0,1.211,3.605L214.1,42.01h1.769V32.918h-1.7Z" transform="translate(816.939 -115.28)" fill="#fff" fill-rule="evenodd"/>
  </g>
</svg>
