<?xml version="1.0" encoding="UTF-8"?>
<svg width="300px" height="61px" viewBox="0 0 300 61" version="1.1" xmlns="http://www.w3.org/2000/svg" xmlns:xlink="http://www.w3.org/1999/xlink">
    <title>logo-iislafe-color</title>
    <g id="Page-1" stroke="none" stroke-width="1" fill="none" fill-rule="evenodd">
        <g id="logo-iislafe-color" fill="#0055B8" fill-rule="nonzero">
            <g id="Group">
                <rect id="Rectangle" x="133.912497" y="32.6285674" width="6.36382667" height="27.8347638"></rect>
                <rect id="Rectangle" x="146.326146" y="32.6285674" width="6.36382667" height="27.8347638"></rect>
                <path d="M176.407787,46.4098807 C175.472751,45.8376945 174.440025,45.3701765 173.323564,45.0003489 C172.207103,44.6305212 171.069709,44.3165166 169.925337,44.065313 C168.780964,43.8141093 167.74126,43.5629056 166.799246,43.3117019 C165.86421,43.0604982 165.103622,42.7116042 164.531435,42.258042 C163.959249,41.8044798 163.673156,41.21136 163.673156,40.4717047 C163.673156,39.8925406 163.847603,39.3552439 164.196497,38.880748 C164.545391,38.4062522 165.103622,38.0294467 165.857233,37.7503314 C166.610844,37.4712162 167.615658,37.3316586 168.864699,37.3316586 C170.113739,37.3316586 171.313935,37.5130835 172.611821,37.8689554 C173.916684,38.2248273 175.172703,38.7621241 176.400809,39.4808457 L178.389505,34.631219 C177.140465,33.8357407 175.67511,33.2286651 173.993441,32.8030144 C172.311772,32.3773638 170.616147,32.1680274 168.899588,32.1680274 C166.324751,32.1680274 164.182541,32.5587886 162.472961,33.3403112 C160.770358,34.1218338 159.500384,35.1685158 158.663038,36.4803573 C157.83267,37.7921987 157.413998,39.2435978 157.413998,40.8345545 C157.413998,42.2929314 157.693113,43.5070825 158.251343,44.47003 C158.809574,45.4399553 159.563185,46.2214779 160.519154,46.8145977 C161.468146,47.4146954 162.50785,47.8891913 163.645245,48.2450631 C164.775661,48.600935 165.906078,48.9079618 167.022539,49.1591654 C168.138999,49.4103691 169.178704,49.6755286 170.127695,49.9546438 C171.076687,50.233759 171.837276,50.5896309 172.409462,51.0292373 C172.981648,51.4688438 173.267741,52.0549857 173.267741,52.8016189 C173.267741,53.3877608 173.086316,53.897146 172.723467,54.3297746 C172.360617,54.7624032 171.795409,55.1182751 171.027842,55.3834345 C170.260275,55.648594 169.248482,55.7811737 167.999442,55.7811737 C166.35964,55.7811737 164.733794,55.5090364 163.114926,54.9647617 C161.503035,54.4204871 160.121415,53.722699 158.977043,52.8783755 L156.827856,57.7280022 C158.048985,58.6839718 159.674831,59.4585165 161.691438,60.0516363 C163.708045,60.651734 165.808387,60.944805 167.999442,60.944805 C170.57428,60.944805 172.723467,60.5470658 174.440025,59.7515875 C176.156584,58.9561091 177.440514,57.9094271 178.284837,56.6115414 C179.129161,55.3136557 179.554811,53.8831903 179.554811,52.3131673 C179.554811,50.8827018 179.26174,49.6825065 178.675598,48.7125811 C178.089456,47.7426558 177.328867,46.975089 176.393832,46.4029028 L176.407787,46.4098807 Z" id="Path"></path>
                <polygon id="Path" points="202.881864 32.6285674 196.518038 32.6285674 196.518038 60.4703091 216.509664 60.4703091 216.509664 55.2159654 202.881864 55.2159654"></polygon>
                <path d="M235.433675,41.0648245 C233.661294,39.5296909 231.177168,38.7551462 227.974321,38.7551462 C226.306608,38.7551462 224.666806,38.9714605 223.054916,39.4110669 C221.443026,39.8506734 220.061405,40.4926383 218.917033,41.3369618 L221.06622,45.6702254 C221.847743,45.0631498 222.775801,44.5746982 223.857372,44.2188263 C224.938944,43.8629544 226.034471,43.6815296 227.157909,43.6815296 C228.797711,43.6815296 230.011862,44.0513572 230.807341,44.7979904 C231.602819,45.5376457 232.000558,46.5773498 232.000558,47.903147 L232.000558,47.9450143 L227.199777,47.9450143 C225.036634,47.9450143 223.292164,48.2101737 221.966367,48.7404926 C220.640569,49.2708115 219.670644,50.0174447 219.056591,50.98737 C218.442537,51.9572954 218.142488,53.0598004 218.142488,54.308841 C218.142488,55.5578815 218.463471,56.6324751 219.098458,57.6093783 C219.733445,58.5932594 220.640569,59.3678041 221.812853,59.9330124 C222.985137,60.5051985 224.373735,60.7912916 225.992603,60.7912916 C227.841742,60.7912916 229.348964,60.4284418 230.521248,59.6957644 C231.316726,59.2003349 231.937757,58.5513921 232.398297,57.7768474 L232.398297,60.4703091 L238.099225,60.4703091 L238.099225,48.2590189 C238.099225,45.0003489 237.213035,42.5999581 235.440653,41.0578466 L235.433675,41.0648245 Z M230.256088,55.8997976 C229.432698,56.3742935 228.50464,56.6185193 227.464936,56.6185193 C226.425232,56.6185193 225.594864,56.3882492 224.987789,55.9207313 C224.373735,55.4601912 224.066709,54.8252041 224.066709,54.0297258 C224.066709,53.3110041 224.331868,52.7178843 224.869165,52.2364106 C225.399484,51.7619147 226.383365,51.5176889 227.820808,51.5176889 L232.000558,51.5176889 L232.000558,53.7017654 C231.658642,54.6856465 231.079478,55.411346 230.263066,55.8858419 L230.256088,55.8997976 Z" id="Shape"></path>
                <polygon id="Path" points="255.774196 60.4703091 262.145 60.4703091 262.145 50.3314493 274.75403 50.3314493 274.75403 45.1608401 262.145 45.1608401 262.145 37.7991766 276.435699 37.7991766 276.435699 32.6285674 255.774196 32.6285674"></polygon>
                <path d="M298.548601,43.9257554 C297.585653,42.2789756 296.28079,41.0090015 294.627032,40.1088549 C292.973275,39.2087084 291.117159,38.7551462 289.058684,38.7551462 C287.000209,38.7551462 285.004536,39.229642 283.301933,40.164678 C281.59933,41.1066918 280.266555,42.4115554 279.317563,44.0792687 C278.368572,45.7469821 277.894076,47.6449655 277.894076,49.766241 C277.894076,51.8875166 278.389505,53.7785221 279.380364,55.4322797 C280.371223,57.0860373 281.759821,58.3978787 283.560114,59.3468704 C285.360408,60.2958621 287.453772,60.7773358 289.847184,60.7773358 C291.745168,60.7773358 293.426837,60.477287 294.885214,59.8841672 C296.343591,59.2840695 297.550764,58.4327681 298.520689,57.3163073 L295.275975,53.7366548 C294.571209,54.4274649 293.796665,54.9438281 292.952341,55.2857442 C292.108018,55.6276603 291.138092,55.8021073 290.042565,55.8021073 C288.765613,55.8021073 287.670086,55.5718373 286.762961,55.1043193 C285.855837,54.6368013 285.137115,53.9739027 284.613774,53.0946898 C284.327681,52.6132161 284.125323,52.0828972 283.999721,51.5037332 L299.881376,51.5037332 C299.909288,51.2385737 299.930221,50.9524806 299.958133,50.6454539 C299.986044,50.3384272 300,50.0662899 300,49.8290419 C300,47.5193636 299.518526,45.5446235 298.555579,43.9048217 L298.548601,43.9257554 Z M286.344289,44.1420696 C287.139767,43.6815296 288.053869,43.4442816 289.100551,43.4442816 C290.147233,43.4442816 291.054358,43.6745517 291.83588,44.1420696 C292.617403,44.6095876 293.231456,45.2515526 293.671063,46.0679646 C293.964134,46.6122392 294.145559,47.2262927 294.229293,47.8961691 L283.922964,47.8961691 C284.027632,47.2332705 284.209057,46.626195 284.49515,46.0888982 C284.934757,45.2515526 285.555788,44.6026097 286.351266,44.1420696 L286.344289,44.1420696 Z" id="Shape"></path>
                <polygon id="Path" points="63.8755146 9.81787733 60.7773358 10.2993511 60.770358 14.2139418 63.8685367 13.8092248"></polygon>
                <polygon id="Path" points="63.8755146 1.15135022 60.7773358 1.63282395 60.770358 5.5474147 63.8685367 5.14269765"></polygon>
                <polygon id="Path" points="74.6702952 50.289582 90.7403531 52.6969507 90.7752425 50.6035866 74.6702952 47.7984788"></polygon>
                <polygon id="Path" points="75.612309 11.5763031 90.7612867 20.5847464 90.7612867 18.4355593 75.2843486 8.77119531 75.2843486 11.29021 70.2044519 7.75242481 70.2044519 9.99930221 75.612309 13.6557114"></polygon>
                <polygon id="Path" points="75.612309 26.2019399 90.7612867 32.7541693 90.7612867 30.6049822 75.2843486 23.3758984 75.2843486 26.0344707 70.2044519 23.3200754 70.2044519 25.6925546 75.612309 28.4139278"></polygon>
                <polygon id="Path" points="75.612309 33.7938734 90.7612867 38.8388807 90.7612867 36.6896937 75.2843486 30.9050311 75.2843486 33.6473379 70.2044519 31.4841951 70.2044519 33.703161 75.612309 35.7895471"></polygon>
                <polygon id="Path" points="75.2843486 38.8388807 75.2843486 41.2881167 70.2044519 40.0390761 70.2044519 42.1463959 75.612309 43.4163701 75.612309 41.5183867 90.7822204 45.4818226 90.7822204 43.2768125"></polygon>
                <polygon id="Path" points="99.5534157 18.8891215 118.093643 31.2888145 118.093643 30.0118624 96.8669318 15.1978229 96.8669318 18.6658293 99.5534157 20.2707417"></polygon>
                <polygon id="Path" points="99.5534157 32.9007048 118.093643 41.6928337 118.093643 40.4368153 96.8669318 29.8723048 96.8669318 33.2007536 99.5534157 34.4288605"></polygon>
                <polygon id="Path" points="96.8669318 40.2972577 99.5534157 41.2950946 99.5534157 39.871607 118.128533 46.737841 118.128533 45.4888005 96.8669318 36.9827646"></polygon>
                <polygon id="Path" points="99.5813272 46.8983323 118.121555 51.6084014 118.121555 50.3454051 96.8669318 44.295583 96.8669318 47.6100761 99.5813272 48.2101737"></polygon>
                <polygon id="Path" points="0 55.1182751 55.1322308 54.8042705 55.1392087 53.0528226 0 52.1875654"></polygon>
                <polygon id="Path" points="75.612309 18.9519224 90.7612867 26.4880329 90.7612867 24.3737353 75.2843486 15.9863234 75.2843486 18.7146745 70.2044519 15.5676505 70.2044519 17.7377713 75.612309 20.954574"></polygon>
                <polygon id="Path" points="34.0032098 24.9877887 29.9699951 25.029656 30.0048845 28.6930431 55.1392087 28.6721094 55.1392087 27.0462633 34.0380992 27.0323076"></polygon>
                <polygon id="Path" points="34.0032098 30.8212965 29.9699951 30.8631638 30.0048845 34.5265508 55.1392087 34.5056172 55.1392087 32.8797711 34.0380992 32.8658154"></polygon>
                <polygon id="Path" points="34.0032098 36.6548043 29.9699951 36.6896937 30.0048845 40.3600586 55.1392087 40.339125 55.1392087 38.7132789 34.0380992 38.6993231"></polygon>
                <polygon id="Path" points="34.0032098 42.4883121 29.9699951 42.5232015 30.0048845 46.1935664 55.1392087 46.1726328 55.1392087 44.5467867 34.0380992 44.5328309"></polygon>
                <polygon id="Path" points="12.0159096 36.8571628 12.0089317 34.5335287 10.4668202 34.5265508 10.4737981 36.8780964"></polygon>
                <polygon id="Path" points="99.5534157 26.194962 118.093643 36.8571628 118.093643 35.5871886 96.8669318 22.7758007 96.8669318 26.0833159 99.5534157 27.6114716"></polygon>
                <polygon id="Path" points="96.9576443 54.832182 99.5813272 55.1252529 99.5813272 53.7506106 118.128533 56.6185193 118.128533 55.355523 96.9227549 51.5944456"></polygon>
                <polygon id="Path" points="74.6912288 58.8165515 90.7612867 59.4934059 90.7682646 57.9512944 74.6633173 56.6185193"></polygon>
                <polygon id="Path" points="96.6924848 59.5073617 118.121555 60.4284418 118.121555 59.5282953 96.7622636 57.8187147"></polygon>
                <polygon id="Path" points="75.5006629 4.21463959 90.7822204 14.2209197 90.7822204 12.106622 75.3262159 1.2629963 75.3262159 3.82387831 75.1796804 3.69827646 70.2044519 0 70.2044519 2.2468774 75.5006629 6.05679994"></polygon>
                <polygon id="Path" points="63.8755146 18.4774266 60.7773358 18.9589003 60.770358 22.8804689 63.8685367 22.468774"></polygon>
                <polygon id="Path" points="63.8755146 27.1369758 60.7773358 27.6254274 60.770358 31.5400181 63.8685367 31.1353011"></polygon>
                <polygon id="Path" points="63.8755146 35.8035029 60.7773358 36.2849766 60.770358 40.1995674 63.8685367 39.7948503"></polygon>
                <polygon id="Path" points="60.770358 51.0641267 60.7912916 55.2508548 63.9243598 55.2020096 63.8964483 50.7640779"></polygon>
                <rect id="Rectangle" x="13.8371363" y="42.2371084" width="10.1597935" height="1.89100551"></rect>
                <rect id="Rectangle" x="13.8371363" y="36.8571628" width="10.1597935" height="1.89100551"></rect>
                <rect id="Rectangle" x="13.8371363" y="31.4702393" width="10.1597935" height="1.89100551"></rect>
                <polygon id="Path" points="27.646361 31.8121555 27.6184495 28.9651804 25.9088689 29.0000698 25.9367804 31.7981997"></polygon>
                <polygon id="Path" points="25.9995813 38.2806503 27.709162 38.2946061 27.6812504 35.447631 25.9716698 35.4825204"></polygon>
                <polygon id="Path" points="26.0623822 44.7561231 27.7719629 44.7770567 27.7440514 41.9300816 26.0344707 41.964971"></polygon>
                <polygon id="Path" points="10.5017096 41.8951922 12.0368432 41.8812365 12.0298653 39.5576024 10.4877538 39.5436466"></polygon>
                <rect id="Rectangle" x="0" y="37.1083665" width="7.97571698" height="1.82122671"></rect>
                <rect id="Rectangle" x="0" y="40.6670853" width="7.97571698" height="1.82122671"></rect>
            </g>
        </g>
    </g>
</svg>