<svg width="1069" height="948" xmlns="http://www.w3.org/2000/svg" xmlns:xlink="http://www.w3.org/1999/xlink" xml:space="preserve" overflow="hidden"><g transform="translate(-2164 -506)"><g><g><g><path d="M718.462 338.406C711.521 338.406 705.447 339.274 698.505 341.009L679.416 282.873C732.346 255.106 753.171 190.028 725.404 137.098 697.637 84.1677 632.559 63.3427 579.629 91.1094 550.995 105.86 530.17 133.627 523.228 164.865L446.87 157.923C446.002 118.008 413.897 86.7708 373.982 87.6385 334.068 88.5062 302.83 120.611 303.698 160.526 303.698 175.277 308.904 189.16 316.714 201.308L221.266 295.888C176.145 256.842 107.596 261.18 68.549 306.301 29.5021 351.422 32.9729 419.971 78.0937 459.018 98.051 476.372 123.215 485.917 149.246 485.917 151.849 485.917 154.452 485.917 157.055 485.917L180.483 610.867C142.304 622.147 121.479 662.061 132.759 700.24 144.04 738.42 183.954 759.245 222.133 747.964 260.312 736.684 281.137 696.77 269.857 658.591 268.122 654.252 266.386 649.913 264.651 645.575L341.877 606.528 341.877 606.528C384.395 664.664 465.959 676.812 523.228 634.295 567.481 601.322 586.571 544.921 570.952 491.991L655.12 446.002C675.077 479.843 718.462 491.991 753.171 472.033 787.011 452.076 799.159 408.691 779.202 373.982 767.054 352.29 743.626 338.406 718.462 338.406ZM576.158 261.18C578.761 232.546 604.793 210.853 633.427 213.456 658.591 216.059 678.548 236.017 681.151 261.18 649.913 282.873 608.263 282.873 576.158 261.18ZM604.793 171.806C604.793 158.791 615.205 147.51 629.088 147.51 642.972 147.51 653.384 157.923 653.384 171.806 653.384 184.822 642.972 196.102 629.088 196.102 616.073 196.102 604.793 184.822 604.793 171.806L604.793 171.806ZM629.088 95.4479C679.416 95.4479 720.198 136.23 720.198 186.557 720.198 209.118 711.521 230.81 696.77 248.165 691.563 228.207 676.812 210.853 657.723 202.176 674.209 186.557 675.077 160.526 659.458 143.172 643.839 126.685 617.808 125.818 600.454 141.436 583.1 157.055 583.1 183.086 598.719 200.441 599.586 201.308 600.454 202.176 600.454 202.176 581.365 210.853 566.613 227.34 561.407 248.165 527.567 210.853 530.17 153.584 567.481 119.744 584.835 104.125 606.528 95.4479 629.088 95.4479ZM570.952 278.534 500.668 411.294C439.06 382.659 367.041 406.087 334.068 465.092L249.9 419.103C265.519 381.792 258.577 339.274 233.413 308.036L328.861 212.589C358.363 238.62 403.484 235.149 429.516 204.779 437.325 196.102 442.531 185.69 445.134 174.409L521.493 181.351C521.493 183.086 521.493 184.822 521.493 186.557 520.625 223.869 539.715 258.577 570.952 278.534ZM363.57 149.246C363.57 142.304 368.776 137.098 375.718 137.098 382.659 137.098 387.866 142.304 387.866 149.246 387.866 156.187 382.659 161.394 375.718 161.394 375.718 161.394 375.718 161.394 375.718 161.394 368.776 160.526 363.57 155.32 363.57 149.246ZM375.718 177.88C390.469 177.88 402.617 188.293 405.22 203.044 386.998 215.192 364.437 215.192 346.216 203.044 347.951 189.16 360.099 178.748 375.718 177.88ZM375.718 104.125C405.22 104.125 429.516 128.421 430.383 157.923 430.383 169.203 426.912 180.483 419.971 190.028 415.632 180.483 408.691 171.806 399.146 166.6 403.484 161.394 405.22 155.32 405.22 148.378 405.22 131.892 392.204 118.876 375.718 118.876 359.231 118.876 346.216 131.892 346.216 148.378 346.216 155.32 348.819 161.394 352.29 166.6 342.745 171.806 335.803 179.616 331.465 190.028 314.11 165.732 319.317 131.892 342.745 114.537 352.29 107.596 363.57 104.125 375.718 104.125ZM59.0042 377.453C59.0042 327.126 99.7864 286.344 150.114 286.344 200.441 286.344 241.223 327.126 241.223 377.453 241.223 400.013 232.546 421.706 217.795 439.06 212.589 419.103 197.837 401.749 178.748 393.072 195.234 377.453 196.102 351.422 180.483 334.068 164.865 316.714 138.833 316.714 121.479 332.332 104.993 347.951 104.125 373.982 119.744 391.336 120.611 392.204 121.479 393.072 121.479 393.072 102.39 401.749 87.6385 418.235 82.4323 439.06 66.8135 421.706 59.0042 400.013 59.0042 377.453ZM125.818 362.702C125.818 349.686 136.23 338.406 150.114 338.406 163.997 338.406 174.409 348.819 174.409 362.702 174.409 375.718 163.997 386.998 150.114 386.998 136.23 386.998 125.818 375.718 125.818 362.702ZM97.1833 452.076C99.7864 423.442 125.818 401.749 154.452 404.352 179.616 406.955 199.573 426.912 202.176 452.076 170.939 473.769 128.421 473.769 97.1833 452.076ZM171.806 724.536C174.409 708.05 189.16 696.77 205.647 699.373 218.662 701.108 229.075 711.521 230.81 724.536 213.456 735.817 190.028 735.817 171.806 724.536ZM190.028 669.871C190.028 662.929 195.234 657.723 202.176 657.723 209.118 657.723 214.324 662.929 214.324 669.871 214.324 676.812 209.118 682.019 202.176 682.019 195.234 681.151 190.028 675.945 190.028 669.871L190.028 669.871ZM245.561 710.653C241.223 701.108 234.281 692.431 224.736 687.225 229.075 682.019 230.81 675.945 230.81 669.003 230.81 652.517 217.795 639.501 201.308 639.501 184.822 639.501 171.806 652.517 171.806 669.003 171.806 675.945 174.409 682.019 177.88 687.225 168.335 692.431 161.394 700.24 157.055 710.653 139.701 686.357 144.907 652.517 169.203 635.162 193.499 617.808 227.34 623.015 244.694 647.31 259.445 665.532 259.445 691.563 245.561 710.653L245.561 710.653ZM254.238 630.824C241.223 616.073 222.133 607.396 202.176 607.396 201.308 607.396 199.573 607.396 198.705 607.396L175.277 482.446C203.044 475.504 227.34 458.15 242.091 433.854L326.258 479.843C311.507 516.286 314.11 557.069 332.332 590.909L254.238 630.824ZM380.924 620.411C383.527 583.968 415.632 557.069 452.076 559.672 484.181 562.275 510.212 588.306 512.816 620.411 473.769 649.046 419.971 649.046 380.924 620.411ZM415.632 511.08C415.632 493.726 429.516 479.843 446.87 479.843 464.224 479.843 478.107 493.726 478.107 511.08 478.107 528.434 464.224 542.318 446.87 542.318 446.87 542.318 446.87 542.318 446.87 542.318 429.516 542.318 415.632 528.434 415.632 511.08ZM528.434 607.396C522.36 580.497 503.271 558.804 478.107 548.392 498.932 531.037 501.535 500.668 484.181 479.843 466.827 459.018 436.457 456.414 415.632 473.769 394.807 491.123 392.204 521.493 409.558 542.318 411.294 544.921 413.897 546.656 415.632 548.392 390.469 558.804 371.379 580.497 365.305 607.396 321.92 562.275 323.655 491.123 368.776 447.737 413.897 404.352 485.049 406.087 528.434 451.208 570.084 494.594 570.084 564.01 528.434 607.396ZM564.878 475.504C554.466 452.076 537.111 432.986 516.286 419.103L586.571 286.344C610.867 296.756 637.766 297.624 662.929 289.815L682.019 347.951C653.384 364.437 639.501 398.278 649.046 429.516L564.878 475.504ZM688.093 455.547C690.696 439.06 705.447 427.78 721.933 430.383 734.949 432.119 745.361 442.531 747.097 455.547 729.743 466.827 706.315 466.827 688.093 455.547ZM706.315 400.881C706.315 393.94 711.521 388.733 718.462 388.733 725.404 388.733 730.61 393.94 730.61 400.881 730.61 407.823 725.404 413.029 718.462 413.029 718.462 413.029 718.462 413.029 718.462 413.029 711.521 412.161 706.315 406.955 706.315 400.881L706.315 400.881ZM761.848 441.663C757.509 432.119 750.568 423.442 741.023 418.235 745.361 413.029 747.097 406.955 747.097 400.013 747.097 383.527 734.081 370.511 717.595 370.511 701.108 370.511 688.093 383.527 688.093 400.013 688.093 406.955 690.696 413.029 694.167 418.235 684.622 423.442 677.68 431.251 673.342 441.663 655.987 417.368 661.194 383.527 685.49 366.173 709.785 348.819 743.626 354.025 760.98 378.321 775.731 396.543 775.731 422.574 761.848 441.663 761.848 441.663 761.848 441.663 761.848 441.663Z" fill="#FFFFFF" transform="matrix(1.07923 0 0 1 2249 506)"></path></g></g></g><text fill="#FFFFFF" font-family="Roboto,Roboto_MSFontService,sans-serif" font-weight="700" font-size="92" transform="matrix(1 0 0 1 2219.81 1376)">GVA </text><text fill="#FFFFFF" font-family="Roboto,Roboto_MSFontService,sans-serif" font-weight="700" font-size="92" transform="matrix(1 0 0 1 2427.2 1376)">PharmaTrace</text><text fill="#FFFFFF" font-family="Roboto,Roboto_MSFontService,sans-serif" font-weight="700" font-size="92" transform="matrix(1 0 0 1 3009.29 1376)">Hub</text></g></svg>