<svg width="1068" height="966" xmlns="http://www.w3.org/2000/svg" xmlns:xlink="http://www.w3.org/1999/xlink" xml:space="preserve" overflow="hidden"><g transform="translate(-38 -488)"><text fill="#C00000" font-family="Roboto,Roboto_MSFontService,sans-serif" font-weight="700" font-size="92" transform="matrix(1 0 0 1 93.1396 1376)">GVA </text><text fill="#C00000" font-family="Roboto,Roboto_MSFontService,sans-serif" font-weight="700" font-size="92" transform="matrix(1 0 0 1 300.535 1376)">PharmaTrace</text><text fill="#C00000" font-family="Roboto,Roboto_MSFontService,sans-serif" font-weight="700" font-size="92" transform="matrix(1 0 0 1 882.619 1376)">Hub</text><g><g><g><path d="M717.6 338C710.667 338 704.6 338.867 697.667 340.6L678.6 282.533C731.467 254.8 752.267 189.8 724.533 136.933 696.8 84.0667 631.8 63.2667 578.933 91 550.333 105.733 529.533 133.467 522.6 164.667L446.333 157.733C445.467 117.867 413.4 86.6666 373.533 87.5333 333.667 88.4 302.467 120.467 303.333 160.333 303.333 175.067 308.533 188.933 316.333 201.067L221 295.533C175.933 256.533 107.467 260.867 68.4667 305.933 29.4667 351 32.9333 419.467 78 458.467 97.9333 475.8 123.067 485.333 149.067 485.333 151.667 485.333 154.267 485.333 156.867 485.333L180.267 610.133C142.133 621.4 121.333 661.267 132.6 699.4 143.867 737.533 183.733 758.333 221.867 747.067 260 735.8 280.8 695.933 269.533 657.8 267.8 653.467 266.067 649.133 264.333 644.8L341.467 605.8 341.467 605.8C383.933 663.867 465.4 676 522.6 633.533 566.8 600.6 585.867 544.267 570.267 491.4L654.333 445.467C674.267 479.267 717.6 491.4 752.267 471.467 786.066 451.533 798.2 408.2 778.267 373.533 766.133 351.867 742.733 338 717.6 338ZM575.467 260.867C578.067 232.267 604.067 210.6 632.667 213.2 657.8 215.8 677.733 235.733 680.333 260.867 649.133 282.533 607.533 282.533 575.467 260.867ZM604.067 171.6C604.067 158.6 614.467 147.333 628.333 147.333 642.2 147.333 652.6 157.733 652.6 171.6 652.6 184.6 642.2 195.867 628.333 195.867 615.333 195.867 604.067 184.6 604.067 171.6L604.067 171.6ZM628.333 95.3333C678.6 95.3333 719.333 136.067 719.333 186.333 719.333 208.867 710.667 230.533 695.933 247.867 690.733 227.933 676 210.6 656.933 201.933 673.4 186.333 674.267 160.333 658.667 143 643.067 126.533 617.067 125.667 599.733 141.267 582.4 156.867 582.4 182.867 598 200.2 598.867 201.067 599.733 201.933 599.733 201.933 580.667 210.6 565.933 227.067 560.733 247.867 526.933 210.6 529.533 153.4 566.8 119.6 584.133 104 605.8 95.3333 628.333 95.3333ZM570.267 278.2 500.067 410.8C438.533 382.2 366.6 405.6 333.667 464.533L249.6 418.6C265.2 381.333 258.267 338.867 233.133 307.667L328.467 212.333C357.933 238.333 403 234.867 429 204.533 436.8 195.867 442 185.467 444.6 174.2L520.867 181.133C520.867 182.867 520.867 184.6 520.867 186.333 520 223.6 539.067 258.267 570.267 278.2ZM363.133 149.067C363.133 142.133 368.333 136.933 375.267 136.933 382.2 136.933 387.4 142.133 387.4 149.067 387.4 156 382.2 161.2 375.267 161.2 375.267 161.2 375.267 161.2 375.267 161.2 368.333 160.333 363.133 155.133 363.133 149.067ZM375.267 177.667C390 177.667 402.133 188.067 404.733 202.8 386.533 214.933 364 214.933 345.8 202.8 347.533 188.933 359.667 178.533 375.267 177.667ZM375.267 104C404.733 104 429 128.267 429.867 157.733 429.867 169 426.4 180.267 419.467 189.8 415.133 180.267 408.2 171.6 398.667 166.4 403 161.2 404.733 155.133 404.733 148.2 404.733 131.733 391.733 118.733 375.267 118.733 358.8 118.733 345.8 131.733 345.8 148.2 345.8 155.133 348.4 161.2 351.867 166.4 342.333 171.6 335.4 179.4 331.067 189.8 313.733 165.533 318.933 131.733 342.333 114.4 351.867 107.467 363.133 104 375.267 104ZM58.9333 377C58.9333 326.733 99.6666 286 149.933 286 200.2 286 240.933 326.733 240.933 377 240.933 399.533 232.267 421.2 217.533 438.533 212.333 418.6 197.6 401.267 178.533 392.6 195 377 195.867 351 180.267 333.667 164.667 316.333 138.667 316.333 121.333 331.933 104.867 347.533 104 373.533 119.6 390.867 120.467 391.733 121.333 392.6 121.333 392.6 102.267 401.267 87.5333 417.733 82.3333 438.533 66.7333 421.2 58.9333 399.533 58.9333 377ZM125.667 362.267C125.667 349.267 136.067 338 149.933 338 163.8 338 174.2 348.4 174.2 362.267 174.2 375.267 163.8 386.533 149.933 386.533 136.067 386.533 125.667 375.267 125.667 362.267ZM97.0667 451.533C99.6666 422.933 125.667 401.267 154.267 403.867 179.4 406.467 199.333 426.4 201.933 451.533 170.733 473.2 128.267 473.2 97.0667 451.533ZM171.6 723.667C174.2 707.2 188.933 695.933 205.4 698.533 218.4 700.267 228.8 710.667 230.533 723.667 213.2 734.933 189.8 734.933 171.6 723.667ZM189.8 669.067C189.8 662.133 195 656.933 201.933 656.933 208.867 656.933 214.067 662.133 214.067 669.067 214.067 676 208.867 681.2 201.933 681.2 195 680.333 189.8 675.133 189.8 669.067L189.8 669.067ZM245.267 709.8C240.933 700.267 234 691.6 224.467 686.4 228.8 681.2 230.533 675.133 230.533 668.2 230.533 651.733 217.533 638.733 201.067 638.733 184.6 638.733 171.6 651.733 171.6 668.2 171.6 675.133 174.2 681.2 177.667 686.4 168.133 691.6 161.2 699.4 156.867 709.8 139.533 685.533 144.733 651.733 169 634.4 193.267 617.067 227.067 622.267 244.4 646.533 259.133 664.733 259.133 690.733 245.267 709.8L245.267 709.8ZM253.933 630.067C240.933 615.333 221.867 606.667 201.933 606.667 201.067 606.667 199.333 606.667 198.467 606.667L175.067 481.867C202.8 474.933 227.067 457.6 241.8 433.333L325.867 479.267C311.133 515.667 313.733 556.4 331.933 590.2L253.933 630.067ZM380.467 619.667C383.067 583.267 415.133 556.4 451.533 559 483.6 561.6 509.6 587.6 512.2 619.667 473.2 648.267 419.467 648.267 380.467 619.667ZM415.133 510.467C415.133 493.133 429 479.267 446.333 479.267 463.667 479.267 477.533 493.133 477.533 510.467 477.533 527.8 463.667 541.667 446.333 541.667 446.333 541.667 446.333 541.667 446.333 541.667 429 541.667 415.133 527.8 415.133 510.467ZM527.8 606.667C521.733 579.8 502.667 558.133 477.533 547.733 498.333 530.4 500.933 500.067 483.6 479.267 466.267 458.467 435.933 455.867 415.133 473.2 394.333 490.533 391.733 520.867 409.067 541.667 410.8 544.267 413.4 546 415.133 547.733 390 558.133 370.933 579.8 364.867 606.667 321.533 561.6 323.267 490.533 368.333 447.2 413.4 403.867 484.467 405.6 527.8 450.667 569.4 494 569.4 563.333 527.8 606.667ZM564.2 474.933C553.8 451.533 536.467 432.467 515.667 418.6L585.867 286C610.133 296.4 637 297.267 662.133 289.467L681.2 347.533C652.6 364 638.733 397.8 648.267 429L564.2 474.933ZM687.267 455C689.867 438.533 704.6 427.267 721.067 429.867 734.067 431.6 744.467 442 746.2 455 728.867 466.267 705.467 466.267 687.267 455ZM705.467 400.4C705.467 393.467 710.667 388.267 717.6 388.267 724.533 388.267 729.733 393.467 729.733 400.4 729.733 407.333 724.533 412.533 717.6 412.533 717.6 412.533 717.6 412.533 717.6 412.533 710.667 411.667 705.467 406.467 705.467 400.4L705.467 400.4ZM760.933 441.133C756.6 431.6 749.667 422.933 740.133 417.733 744.467 412.533 746.2 406.467 746.2 399.533 746.2 383.067 733.2 370.067 716.733 370.067 700.267 370.067 687.267 383.067 687.267 399.533 687.267 406.467 689.867 412.533 693.333 417.733 683.8 422.933 676.867 430.733 672.533 441.133 655.2 416.867 660.4 383.067 684.667 365.733 708.933 348.4 742.733 353.6 760.067 377.867 774.8 396.067 774.8 422.067 760.933 441.133 760.933 441.133 760.933 441.133 760.933 441.133Z" fill="#C80F2E" transform="matrix(1.08173 0 0 1 101 488)"></path></g></g></g></g></svg>