<svg width="261" height="242" xmlns="http://www.w3.org/2000/svg" xmlns:xlink="http://www.w3.org/1999/xlink" xml:space="preserve" overflow="hidden"><g transform="translate(-333 -147)"><path d="M208.725 98.3125C206.708 98.3125 204.944 98.5646 202.927 99.0687L197.381 82.1792C212.758 74.1125 218.808 55.2062 210.742 39.8292 202.675 24.4521 183.769 18.4021 168.392 26.4688 160.073 30.7542 154.023 38.8208 152.006 47.8958L129.823 45.8792C129.571 34.2833 120.244 25.2083 108.648 25.4604 97.0521 25.7125 87.9771 35.0396 88.2292 46.6354 88.2292 50.9208 89.7417 54.9542 92.0104 58.4833L64.2812 85.9604C51.1729 74.6167 31.2583 75.8771 19.9146 88.9854 8.57083 102.094 9.57917 122.008 22.6875 133.352 28.4854 138.394 35.7958 141.167 43.3583 141.167 44.1146 141.167 44.8708 141.167 45.6271 141.167L52.4333 177.467C41.3417 180.744 35.2917 192.34 38.5687 203.431 41.8458 214.523 53.4417 220.573 64.5333 217.296 75.625 214.019 81.675 202.423 78.3979 191.331 77.8937 190.071 77.3896 188.81 76.8854 187.55L99.3208 176.206 99.3208 176.206C111.673 193.096 135.369 196.625 152.006 184.273 164.863 174.694 170.408 158.308 165.871 142.931L190.323 129.571C196.121 139.402 208.725 142.931 218.808 137.133 228.64 131.335 232.169 118.731 226.371 108.648 222.842 102.346 216.035 98.3125 208.725 98.3125ZM167.383 75.8771C168.14 67.5583 175.702 61.2562 184.021 62.0125 191.331 62.7687 197.129 68.5667 197.885 75.8771 188.81 82.1792 176.71 82.1792 167.383 75.8771ZM175.702 49.9125C175.702 46.1312 178.727 42.8542 182.76 42.8542 186.794 42.8542 189.819 45.8792 189.819 49.9125 189.819 53.6937 186.794 56.9708 182.76 56.9708 178.979 56.9708 175.702 53.6937 175.702 49.9125L175.702 49.9125ZM182.76 27.7292C197.381 27.7292 209.229 39.5771 209.229 54.1979 209.229 60.7521 206.708 67.0542 202.423 72.0958 200.91 66.2979 196.625 61.2562 191.079 58.7354 195.869 54.1979 196.121 46.6354 191.583 41.5938 187.046 36.8042 179.483 36.5521 174.442 41.0896 169.4 45.6271 169.4 53.1896 173.938 58.2313 174.19 58.4833 174.442 58.7354 174.442 58.7354 168.896 61.2562 164.61 66.0458 163.098 72.0958 153.267 61.2562 154.023 44.6188 164.863 34.7875 169.904 30.25 176.206 27.7292 182.76 27.7292ZM165.871 80.9187 145.452 119.488C127.554 111.169 106.631 117.975 97.0521 135.117L72.6 121.756C77.1375 110.917 75.1208 98.5646 67.8104 89.4896L95.5396 61.7604C104.11 69.3229 117.219 68.3146 124.781 59.4917 127.05 56.9708 128.562 53.9458 129.319 50.6688L151.502 52.6854C151.502 53.1896 151.502 53.6937 151.502 54.1979 151.25 65.0375 156.796 75.1208 165.871 80.9187ZM105.623 43.3583C105.623 41.3417 107.135 39.8292 109.152 39.8292 111.169 39.8292 112.681 41.3417 112.681 43.3583 112.681 45.375 111.169 46.8875 109.152 46.8875 109.152 46.8875 109.152 46.8875 109.152 46.8875 107.135 46.6354 105.623 45.1229 105.623 43.3583ZM109.152 51.6771C113.438 51.6771 116.967 54.7021 117.723 58.9875 112.429 62.5167 105.875 62.5167 100.581 58.9875 101.085 54.9542 104.615 51.9292 109.152 51.6771ZM109.152 30.25C117.723 30.25 124.781 37.3083 125.033 45.8792 125.033 49.1562 124.025 52.4333 122.008 55.2062 120.748 52.4333 118.731 49.9125 115.958 48.4 117.219 46.8875 117.723 45.1229 117.723 43.1063 117.723 38.3167 113.942 34.5354 109.152 34.5354 104.363 34.5354 100.581 38.3167 100.581 43.1063 100.581 45.1229 101.338 46.8875 102.346 48.4 99.5729 49.9125 97.5563 52.1813 96.2958 55.2062 91.2542 48.1479 92.7667 38.3167 99.5729 33.275 102.346 31.2583 105.623 30.25 109.152 30.25ZM17.1417 109.656C17.1417 95.0354 28.9896 83.1875 43.6104 83.1875 58.2313 83.1875 70.0792 95.0354 70.0792 109.656 70.0792 116.21 67.5583 122.512 63.2729 127.554 61.7604 121.756 57.475 116.715 51.9292 114.194 56.7188 109.656 56.9708 102.094 52.4333 97.0521 47.8958 92.0104 40.3333 92.0104 35.2917 96.5479 30.5021 101.085 30.25 108.648 34.7875 113.69 35.0396 113.942 35.2917 114.194 35.2917 114.194 29.7458 116.715 25.4604 121.504 23.9479 127.554 19.4104 122.512 17.1417 116.21 17.1417 109.656ZM36.5521 105.371C36.5521 101.59 39.5771 98.3125 43.6104 98.3125 47.6437 98.3125 50.6688 101.338 50.6688 105.371 50.6688 109.152 47.6437 112.429 43.6104 112.429 39.5771 112.429 36.5521 109.152 36.5521 105.371ZM28.2333 131.335C28.9896 123.017 36.5521 116.715 44.8708 117.471 52.1813 118.227 57.9792 124.025 58.7354 131.335 49.6604 137.637 37.3083 137.637 28.2333 131.335ZM49.9125 210.49C50.6688 205.7 54.9542 202.423 59.7438 203.179 63.525 203.683 66.55 206.708 67.0542 210.49 62.0125 213.767 55.2062 213.767 49.9125 210.49ZM55.2062 194.608C55.2062 192.592 56.7188 191.079 58.7354 191.079 60.7521 191.079 62.2646 192.592 62.2646 194.608 62.2646 196.625 60.7521 198.137 58.7354 198.137 56.7188 197.885 55.2062 196.373 55.2062 194.608L55.2062 194.608ZM71.3396 206.456C70.0792 203.683 68.0625 201.163 65.2896 199.65 66.55 198.137 67.0542 196.373 67.0542 194.356 67.0542 189.567 63.2729 185.785 58.4833 185.785 53.6937 185.785 49.9125 189.567 49.9125 194.356 49.9125 196.373 50.6688 198.137 51.6771 199.65 48.9042 201.163 46.8875 203.431 45.6271 206.456 40.5854 199.398 42.0979 189.567 49.1562 184.525 56.2146 179.483 66.0458 180.996 71.0875 188.054 75.3729 193.348 75.3729 200.91 71.3396 206.456L71.3396 206.456ZM73.8604 183.265C70.0792 178.979 64.5333 176.458 58.7354 176.458 58.4833 176.458 57.9792 176.458 57.7271 176.458L50.9208 140.158C58.9875 138.142 66.0458 133.1 70.3312 126.042L94.7833 139.402C90.4979 149.99 91.2542 161.837 96.5479 171.669L73.8604 183.265ZM110.665 180.24C111.421 169.652 120.748 161.837 131.335 162.594 140.662 163.35 148.225 170.913 148.981 180.24 137.637 188.558 122.008 188.558 110.665 180.24ZM120.748 148.477C120.748 143.435 124.781 139.402 129.823 139.402 134.865 139.402 138.898 143.435 138.898 148.477 138.898 153.519 134.865 157.552 129.823 157.552 129.823 157.552 129.823 157.552 129.823 157.552 124.781 157.552 120.748 153.519 120.748 148.477ZM153.519 176.458C151.754 168.644 146.208 162.342 138.898 159.317 144.948 154.275 145.704 145.452 140.662 139.402 135.621 133.352 126.798 132.596 120.748 137.637 114.698 142.679 113.942 151.502 118.983 157.552 119.488 158.308 120.244 158.812 120.748 159.317 113.438 162.342 107.892 168.644 106.127 176.458 93.5229 163.35 94.0271 142.679 107.135 130.075 120.244 117.471 140.915 117.975 153.519 131.083 165.619 143.688 165.619 163.854 153.519 176.458ZM164.106 138.142C161.081 131.335 156.04 125.79 149.99 121.756L170.408 83.1875C177.467 86.2125 185.281 86.4646 192.592 84.1958L198.137 101.085C189.819 105.875 185.785 115.706 188.558 124.781L164.106 138.142ZM199.902 132.344C200.658 127.554 204.944 124.277 209.733 125.033 213.515 125.537 216.54 128.562 217.044 132.344 212.002 135.621 205.196 135.621 199.902 132.344ZM205.196 116.463C205.196 114.446 206.708 112.933 208.725 112.933 210.742 112.933 212.254 114.446 212.254 116.463 212.254 118.479 210.742 119.992 208.725 119.992 208.725 119.992 208.725 119.992 208.725 119.992 206.708 119.74 205.196 118.227 205.196 116.463L205.196 116.463ZM221.329 128.31C220.069 125.537 218.052 123.017 215.279 121.504 216.54 119.992 217.044 118.227 217.044 116.21 217.044 111.421 213.262 107.64 208.473 107.64 203.683 107.64 199.902 111.421 199.902 116.21 199.902 118.227 200.658 119.992 201.667 121.504 198.894 123.017 196.877 125.285 195.617 128.31 190.575 121.252 192.087 111.421 199.146 106.379 206.204 101.338 216.035 102.85 221.077 109.908 225.363 115.202 225.363 122.765 221.329 128.31 221.329 128.31 221.329 128.31 221.329 128.31Z" fill="#1D0F44" transform="matrix(1.07851 0 0 1 333 147)"></path></g></svg>